/* XPM */
static char *a0ace7e2ab424c81b439b962bd917664ebqIjZTjiPLWGrJL[] = {
/* columns rows colors chars-per-pixel */
"64 64 256 2 ",
"   c #15190E",
".  c #2D1A0B",
"X  c #052806",
"o  c #162804",
"O  c #023604",
"+  c #172517",
"@  c #0C2914",
"#  c #2B2A07",
"$  c #362708",
"%  c #252819",
"&  c #342916",
"*  c #333715",
"=  c #2E1833",
"-  c #182927",
";  c #183937",
":  c #142F2C",
">  c #283528",
",  c #363727",
"<  c #272837",
"1  c #283836",
"2  c #2E2D2C",
"3  c #121B30",
"4  c #46281C",
"5  c #4C3119",
"6  c #473728",
"7  c #473735",
"8  c #533027",
"9  c #63291C",
"0  c #2E450C",
"q  c #164236",
"w  c #394628",
"e  c #2F4736",
"r  c #147B2D",
"t  c #266D34",
"y  c #0D430E",
"u  c #4E461E",
"i  c #524626",
"p  c #464638",
"a  c #505131",
"s  c #5C5F38",
"d  c #1C1A43",
"f  c #2B1849",
"g  c #321550",
"h  c #193746",
"j  c #19294A",
"k  c #25274A",
"l  c #253547",
"z  c #312E53",
"x  c #322F68",
"c  c #3B0965",
"v  c #46125C",
"b  c #4D0F6F",
"n  c #4F2A65",
"m  c #1A4A50",
"M  c #2F484D",
"N  c #30476B",
"B  c #4C5245",
"V  c #51664A",
"C  c #88775E",
"Z  c #0A9819",
"A  c #139214",
"S  c #35A817",
"D  c #31AA16",
"F  c #0B8828",
"G  c #16862B",
"H  c #0B9928",
"J  c #139828",
"K  c #188737",
"L  c #099836",
"P  c #159737",
"I  c #0E8B30",
"U  c #279036",
"Y  c #10A12E",
"T  c #36A526",
"R  c #209312",
"E  c #46A01F",
"W  c #169043",
"Q  c #2A8E4F",
"!  c #36AA47",
"~  c #4F9E57",
"^  c #99D838",
"/  c #A1D83E",
"(  c #99E337",
")  c #98E42C",
"_  c #A1E433",
"`  c #999A65",
"'  c #99D645",
"]  c #97D354",
"[  c #A2D548",
"{  c #9AE747",
"}  c #ADD56E",
"|  c #A1E047",
" . c #5F188A",
".. c #7D6D9D",
"X. c #907294",
"o. c #996AA8",
"O. c #9B75A8",
"+. c #9869B8",
"@. c #9A73B6",
"#. c #8C6EAD",
"$. c #A478AB",
"%. c #A46ABB",
"&. c #A87ABA",
"*. c #A16FAA",
"=. c #9A5FB1",
"-. c #9A5CC9",
";. c #AC5CCF",
":. c #9A67C8",
">. c #9B75C4",
",. c #9A67D4",
"<. c #9373CD",
"1. c #A669C8",
"2. c #A577C8",
"3. c #A669D6",
"4. c #A874D5",
"5. c #B36BD1",
"6. c #9D6AE3",
"7. c #A56CE2",
"8. c #7A87AB",
"9. c #79A79C",
"0. c #AE8899",
"q. c #8C92B5",
"w. c #A887AD",
"e. c #AD8FB5",
"r. c #93B3B6",
"t. c #A0B1A0",
"y. c #C8BA95",
"u. c #CCB7AC",
"i. c #ADC79D",
"p. c #94CFB3",
"a. c #A6DAB9",
"s. c #AED2AF",
"d. c #9BE8AC",
"f. c #A6E7AC",
"g. c #A9EBB4",
"h. c #A6F3B4",
"j. c #ADF2B4",
"k. c #D5C998",
"l. c #D3D098",
"z. c #E7DB9A",
"x. c #EEDA98",
"c. c #E8E797",
"v. c #F6EF9D",
"b. c #CBC8A7",
"n. c #D7CAA5",
"m. c #DAD5AA",
"M. c #DBC8B7",
"N. c #DBD8B7",
"B. c #CAD0B6",
"V. c #E7DAA8",
"C. c #F6DDAA",
"Z. c #E8DBB6",
"A. c #F4DCB5",
"S. c #E6C7B7",
"D. c #DAE5B3",
"F. c #ECE3AC",
"G. c #E9E5A7",
"H. c #F1E3AB",
"J. c #F4E9A9",
"K. c #EBE4B3",
"L. c #EBE4BB",
"P. c #E8E7B6",
"I. c #F4EAB3",
"U. c #F6E8B9",
"Y. c #F8F4B6",
"T. c #F0F2AE",
"R. c #97BBC7",
"E. c #A9BCD0",
"W. c #A19EE0",
"Q. c #DEBBD7",
"!. c #98C8C9",
"~. c #9AD6C8",
"^. c #97CCD7",
"/. c #8DDBD9",
"(. c #9CDDDD",
"). c #97D8D8",
"_. c #8AC8C8",
"`. c #A5C9C9",
"'. c #A7C9D6",
"]. c #A3DCDC",
"[. c #ABDCDD",
"{. c #A8D7D8",
"}. c #B4D7DB",
"|. c #B0CDD0",
" X c #8CE6DA",
".X c #94E4DC",
"XX c #9CE3DC",
"oX c #98E7D9",
"OX c #A4E3DC",
"+X c #A7E5DA",
"@X c #B5E5DA",
"#X c #ACEACC",
"$X c #9CDDE4",
"%X c #98DBE6",
"&X c #97CFE8",
"*X c #A9CCE7",
"=X c #A3DDE3",
"-X c #ABDCE2",
";X c #A4DDEB",
":X c #A9D8E9",
">X c #B6DAE5",
",X c #A8DCF3",
"<X c #ADD3F6",
"1X c #8DE8E4",
"2X c #95E3E4",
"3X c #9CE3E3",
"4X c #9CE9E4",
"5X c #95E4EA",
"6X c #9CE4EA",
"7X c #9CEAEC",
"8X c #94EAE6",
"9X c #9CE8F3",
"0X c #97F2E5",
"qX c #A3E3E4",
"wX c #AAE3E4",
"eX c #A3EAE5",
"rX c #A3E4EB",
"tX c #AAE3EB",
"yX c #A3EAEB",
"uX c #AAEAE9",
"iX c #B2E3E4",
"pX c #B5E7E9",
"aX c #A7E7F4",
"sX c #B5E8F5",
"dX c #A6F3F8",
"fX c #B0F2EF",
"gX c #D0CBCF",
"hX c #E9DBC6",
"jX c #F6DCC9",
"kX c #F9DAD6",
"lX c #EAC6D1",
"zX c #D2F0D4",
"xX c #EDE7C5",
"cX c #F7E9C6",
"vX c #FAF6C6",
"bX c #FBE8D7",
"nX c #F2F6D1",
"mX c #EED0F9",
"MX c #DBF8E9",
"NX c #DBECF5",
"BX c #DCFCFD",
"VX c #DAF7F5",
"CX c #CDF2EF",
"ZX c #E9FDE8",
"AX c #F5FFE9",
"SX c #FFE8FD",
"DX c #ECFEF5",
"FX c #E3F5FB",
"GX c #E5FCFD",
"HX c #ECFEFD",
"JX c #E5F7F6",
"KX c #F4FEFD",
"LX c #FDFDFE",
"PX c #F9FAF7",
"IX c #E8ECF4",
"UX c #C5DBE8",
/* pixels */
"PXLXPXKXHXHXLXLXKXHXHXHXKXKXKXLXLXLXLXLXLXKXLXLXLXLXLXLXLXLXLXLXLXLXLXLXLXLXKXGXHXKXKXLXLXLXKXKXLXKXKXDXGXGXKXLXLXPXLXPXPXPXLXLX",
"LXLXVXVXVXVXJXIXFXGXBXBXFXVXVXVXJXJXJXJXVXVXFXJXFXJXFXJXFXJXFXVXBXVXNXFXFXVXCXCXCXCXJXMXJXHXNXCXNXGXCXCXVXGXNXFXFXNXMXMXZXDXLXLX",
"LXVX+XoX+X[.iX[.-X-X).].iXiX].{.OXOXOXXXOXOX[.[.OXOXOX[.[.OXOXXXOXOXOX@XOXOXXXoXoX+XpX}.pXpXwXuX-X{.CX+X@X@XpX>X>XiXOX~.~.}.NXKX",
"KXVXoX XoXXXrX=X(.rXtXrXqXqX3XeXXX.X.X.X.XXX(.(..X.XXXXX(.XX.X X.X.XXXXXXXXX.XoXoXXXp.!.!.!.!.^.OX~.~.!.`.!.'.'.!.XX.X0XoX@XGXKX",
"LXBXeX8X8X4XaX,XaX;X>X>X;XrXrX).6XrXrXrX6X4X6XrX6XqXrXqX6X4XrXqX4X4XqXqXrXrXrXrXfX!.l l k d j h -X{.h 3 < l 3 M pXeX1X1X.X@XNXKX",
"LXFXwX.X1X1X;X:X:X&X<X<X*X:XsX%X6X$X:X;X6X5X6X6X2X3X$X$X2X2X=X=X3X3X3X=X=XwX-X:X*Xr.d f z g x z E.R.z k z f f N `._.dX9X3XiXHXLX",
"LXIX>XqX7X5X,X*X8.q.<X*X8.8.:XaXaXtXtXyX7X7X7X7X8X8X7X5X7XrXtXrXyXyXqXqXtXpX>X*Xd z f n @.@.@.#.k k #.@.&.o.w.X.< M ^.6X;X>XIXLX",
"LXIX>X$X8X5XaX*X8.q.*X*X8.q.,X%XrXrX6X6X6X6X6X8X8X8X1X5X6XrXrX6X6X4X3X$XqX;X*XE.k g v v 1.2.>.+.g z &.%.%.&.*.X.f l *X:X,X>XPXLX",
"LXIXqX2X8X5XaX;X;X:X8.q.:X,XaXrXyX%X7X6X=XsX$X$XrX%X8X1XrX$XyX%X5X5X2X2XyX^.h k f n +.+.4.3.1.:.>.+.1.1.:.4.SXmX#...h m ,X>XJXPX",
"LXFXXX X1X8XyX$X6X$X8.q.;X7X6X/.yX/.2XuX'.}.sX-X>X}.yX8XrX=XyX6X5X5X5X2XyX^.h k g n 4.1.1.1.3.3.:.:.%.1.3.4.SXmX@.#.< ; =X-XZXAX",
"LXFXOX X1X1X4X3XtXsX^.$XsXrXaX8X7X4X3X}.e.w.>X}.e.e.{.3XiX{.qX%XtX6X4X3XuX^.j f v b 5.;.;.5.5.3.:.4.1.1.,.<.SXSX@.#.< ; =XwXMXAX",
"LXVXOXoX X1X4X$X=XtX7XyX-X].yX8X.X4XwX>Xe.e.gXgXw.e.}.wXpX-XuX3XtX;X4X4XuX^.k f v b 5.;.;.5.3.3.3.3.%.1.6.W.SXmX%.o.< 1 -XiXVXDX",
"LXFX[.XX8X2XtX=XtX$X%XrXwXwXrX/.8X2XwX[.>X|.e.e.}.{.>X>XqX).4X4XyX6X8X8XeX^.j f v b 5.3.3.,.:.3.3.-.1.%.-.4.SXmX1.o.= 1 -XiXJXKX",
"LXVX[.XX4X3XtX-XyX6X6XyXrXrXwXXX8X8XtX{.iX}.w.w.uX4X>X{.3X/.4X$XtX6X8X XoX!.j f v b -.-.3.3.,.,.4.:.5.%.4.W.mXmX1.o.= 1 }.-XGXLX",
"LXVXOXXX3XqXtX=X%X5X7X2X(.).(.eX/.4XtX-XtX-X>X>X4X XyX4X7X8XuXtXtXqX4X.XOX!.k g v b  . .3.3.4.:.4.+.%.&.mXmXW.#.1.o.< 1 {.-XFXLX",
"KXBXqX3XqX=XtX=XyX6X5X2X6XtX=XqX4XeX(.wX=X(.sX(.8X.X8X/././.=X=XtX=XXXoX+X~.l z c b b  .-.-.3.:.,.:.1.%.SXmX#.@.@.#.< M OXwXBXKX",
"HXBXtX).sX>XsX-X:X;X9X5XtX:XsXrXqXXXqXqX].OXtX=XuX].fX^.q m sXwXqX4XXXoXoX+X}.E.d g b c b  .;.5.3.,.3.-.4.1.2.X.f k '.-XqX].BXHX",
"KXCXtX=X:X:X'.*X:X:X&X&XaX,X$X%XrXeXuXqXwX].wX{.!.`.|.r.; q r.`.{.).OXOXoXOXwX!.z k x c b b ;.;.3.3.,.7.1.=.@...z N '.tXuXwXBXDX",
"HXVX@X=XdX_.j x <X,Xj N ;X6XuX6X5X5X%X%XuXtX-X`.; 1 > 1 , , p 2 - l }.iXOXfX).+X{.r.d z g b b b 1.:.<.<.>.+.f z '.!.pX=X(.[.GXKX",
"KXJX[.).dX_.j x <X<Xj x tX3X4X4X9X9X9XdX^.-X}.|.- % % & 6 8 $ . 2 1 |.}.{.wX3XqXuX!.l k g v v b %.%.>.>.>...d M pXfXtXtX3X-XFXLX",
"PXzX+XXXrX&X&X&Xx N &X&XsX]. X0X5X6XtX).m h 1 1 7 6 8 8 4 9 9 9 4 6 2 l m m $X%XrX].'.r.k = g f v v f x k z '.~.~.XX).tXtXpXFXLX",
"PXMX+X4XtX$XsX<Xj x <XsX>X=XoXoXqX[.{.`.: - 2 % 6 4 8 9 9 9 9 9 9 8 . % - h {.sX-X-XCX'.; < l < = = z k j M iXeXoX0X2X6X$X-XHXLX",
"LXHX]./.yX%X,X*X*X<X*X:XsX=XeX_.q > > e   2 7 6 8 8 8 8 4 4 9 8 8 4 4 & % > 1 ; l N >X`.}.!.{.r.2 z E.R.'.=X).oX X X4X7XrXiXHXLX",
"KXFX[.uX/.2XsX,X,XaX,XsX^.=XwXp.% # # # & & 6 4 4 8 4 4 8 8 8 4 4 4 6 6 & & % % - < UX>X[.OXuX~.> 1 >XsX=XtXXXoX0X X7X6X$XiXHXLX",
"LXNX{.fX X2XaX$X2X8XXXqXwX!.; M N.V.V.n.A.y.$ $ $ $ & & & & & & % & $ $ V.m.k.V.N.s.> M pXOX/.).: 1 {.rX;X=X4XoXoX.X4X3X4X[.JXLX",
"LXNX@XeX4XyXyX6X8X X4X_.iXa.> w cXV.vXU.U.V.5 $ $ $ & & & & & & , & # u V.Y.J.I.U.m.  1 }.].dX^.: e wXtXaX%X3X/.4X4X6X3X4XOXGXKX",
"LXJX@X_.XX3X%X$X7X0X4X+X: w B.N.L.U.K.U.Z.cXn.n.m.m.m.m.m.m.m.m.m.N.n.m.K.F.V.I.I.V.P.s.e ; >X^.: q ).).tX;XdXqX3X3XrX=X4XOXVXDX",
"PXJX@XXXuXrXtX=X(.).~.p.> a N.vXL.Z.K.K.V.K.vXK.U.U.U.U.P.P.P.I.I.I.K.U.Z.K.K.F.F.V.L.i.> > >X|.- ; pXrX;X$XtX$XqX3XrX;XqXOXBXKX",
"LXJX{.XX(.).pX{.m q q e B.m.vXl.$ u L.L.K.vXV.F.K.F.F.F.F.F.F.F.Y.z.G.K.L.cXxXn.# i vXL.N.s., % % - [.qXtXtXyX(.qXqXtX;XrXOXGXKX",
"LXFX).eXwXOX{.`.: - + a xXZ.vXy.# u L.L.K.F.F.I.H.H.H.H.H.H.H.H.c.z.I.F.K.V.xXZ.$ 5 L.m.xXN.# * & p `.].pX(.3X4XqX3XtX;XrX[.JXKX",
"KXGX-XuXOXp.e > B.N.Z.n.cXn.$ u m.z.V.G.F.F.Y.V.H.H.H.H.H.H.F.F.I.H.H.F.I.I.I.V.Z.n.$ 6 xXL.D.m.hXt.e m ).rXyX.X4X4XtX;XtX-XDXLX",
"KXGX-X(.eX~.@ , xXcXcXcXvXn.# 0 I.I.T.Y.F.Y.F.U.I.I.I.I.U.U.U.U.K.cXL.K.I.I.F.I.cXn.# i cXK.P.U.cXhX@ q iX(.4X8X4X3XtX;XtX-XHXLX",
"KXBX]./.3Xr.: * P.G.F.k.cXm.  u K.F.G.l.i a Z.K.F.I.F.k.i s Z.Z.K.Z.Z.N.w u P.G.Y.k.# u L.P.l.K.K.N.% ; [.3X/.4X3X(.qX$XqX[.JXKX",
"PXMXwX$XdX!.@ , m.I.I.vXcXn.* # xXF.Y.l.$ * m.cXL.K.Y.m.. 6 cXU.U.cXcXb.* # G.T.F.k.$ 5 xXcXY.Y.K.b.% M pXrXyX4XqX].3X3X3X[.GXKX",
"LXMX[.^.sX!.@ , P.L.V.k.5 s b.N.xXZ.I.G.k.k.cXN.6 s U.m.. 7 vXk.6 i m.V.l.l.Y.V.J.V.M.u.7 6 Z.m.cXN.+ ; wX%X/..XqX].4X3X3X[.GXKX",
"LXJXpXtXsXR.: > hXxXnXhX. & cXxXL.K.G.c.vXvXK.m.# 6 L.n.& 7 cXy.. 5 cXU.J.I.G.Y.I.A.bXM.& 7 Z.nXnXs.1 h =XdX7XyXqXqX4X3X3X[.GXKX",
"LXNX'.).$X[.p.t.e e , 7 . i L.K.J.z.v.c.z.m.F.F.n.y.i a C C 5 s n.n.Z.V.G.z.J.z.V.U.cXy.$ . , p , B r.'.$X/.5X/.qXqX6X3XqX[.GXLX",
"LXFXiXfX6XqXpX`.; - - 2   p P.K.G.c.v.J.U.cXI.I.vXZ.. $ ` ` . 5 U.U.I.I.Y.J.I.F.cXV.U.m.# % 2   + > }.pXrXdXdX2XqX3X6X6X4X[.GXLX",
"LXNXqX2X X.XuXOX!.r.'.r.+ , D.P.K.cXV.V.cXhXM.Z.V.k.z.y.& 7 hXn.I.c.v.z.c.G.m.L.L.K.vXb.o > r.E.- e {.].6X5X1X2XqXqX6X6XqX[.DXLX",
"LXNXuX8X0X8X.XeXrXaXsX{.: e D.D.bXhXhXbXZ.cXbXZ.U.U.J.V.. i cXcXF.J.c.c.Y.K.cXxXxXhXnXb.% 1 UX'.; q [.aX5X2XdX2XrXqX6X6XrX-XDXLX",
"KXNX]. X1X X.X.X5X%X,X:X|.t.0 * 7 B O.0.cXA.I.V.Z.A.H.z.V.k.V.A.L.Z.G.z.U.Z.0.X.7 7 B , - - M M !.!.).$X5X5X5X6XqX$X6X%X3X[.JXKX",
"LXFXwX8X8X8X7X4X5XaXaX*X}.s.# # = n #.O.lXjXjXcXjXkXkXjXcXcXbXbXkXkXbXjXbXlXX.X.f = =   , > - ; +XqXtXaXaX7X2X4XtXrXaX9XyXwXHXLX",
"LXNX{.(.3X(.3X(./.aX,X*XM p b.u.X.#.2.#.&.w.O.w.w.$.&.&.$.w.&.$.e.&.&.o.&.e.o.O.o.X.lXgXB.i.+ : {.XX;X$X6X2X.X(.$X%X%X%X$X].JXPX",
"LXJX>XwXtXrXtXwXtX$XsXE.< , cXjXO.2.@.>.2.4.:.:.+.+.:.,.+.>.4.,.:.1.1.-.1.4.%.&.$.0.bXxXxXD.* q OX4XyXyX9X4X4XuXrXtX9X9XyXwXDXLX",
"LXNX}.=X$X$X=X].=X^.m M gXgXxXZ.S.Q.o.+.+.@.,.,.7.3.3.,.:.+.,.,.:.1.4.3.3.3.+.*.lXS.Z.b.* w i.p.oX2X$X%X$X2X(.(.=X$X5X%X6X[.JXPX",
"LXJXiXrXtXrXtXwXOXOX: ; IXbXcXcXU.Z.O.@.O.&.3.7.7.7.3.+.&.O.@.@.*.O.o.o.+.@.$.0.jXcXvXN.> - @X@XeX7XyXyXyXyXeXqXuXtX9X9XaXiXHXLX",
"PXMX].$X5X%X=X].oXp._.9.B B u s G.V.M.lXlXQ.1.:.:.:.3.@.lXS.S.S.M.M.gXgXgXM.M.n.L.n.a M r.!.^.6X2X X%X$X3X3XXX(.=X$X5X%X6X[.JXPX",
"KXVXwX7X9X6XuXOXeXoXfX].@ @ o * I.C.cXbXkXmX%.3.3.,.4.$.bXU.U.H.Y.I.xXcXxXU.Y.G.vXb.+ M CXsXdX9X7X8X6XyXyXeXXXXXwXrX9X9XyXwXHXLX",
"GXCXqX%X$X$XOX).OXXX$X^._.r.+ w F.x.C.A.S.lX1.6.6.,.<.w.jXF.V.G.c.z.V.K.F.F.F.V.U.b.+ M >X).qX3X2X%X$X3X.X.X.XXX3X$X2X2X3X[.FXLX",
"HXBXtXrXtXrXuXOXoX3XaXsXsX!.+ , L.H.Y.U.U.kX1.7.6.,.+.w.xXI.F.H.J.v.J.I.H.I.J.H.vXb.% M >XsXfX8X7XyXrXrX4X4X4X4XrXrX4X8XeXiXHXLX",
"KXNX{.(.=X(.XX.X8X8X%X&XtX`.+ a xXZ.F.G.V.hXo.>.4.%.*.0.jXA.C.C.H.C.C.C.V.V.H.V.K.b.+ M {.qX%X/.2X$X(.(.XX.X2X3X=X$X3X.XXX{.JXLX",
"LXJX@XwXtXrX7X8X8X9X6XaXsX|.  , xXL.F.T.T.Z.X.O.o.o.$.0.A.U.U.U.U.U.U.I.F.I.I.I.U.N.  e iXfXdXdX4XrXrXrXyX7X7XyXtXtXyX4XeX@XKXLX",
"LXIX[.].=X$X5X1X1X9X&X&XaX!.- p cXA.z.c.v.G.n.M.lXlXlXS.U.Z.N.N.Z.Z.L.K.D.G.P.V.Z.N.  e UX].%X5X2X3X$X$X6X5X%X%X%X$X3X.XXX{.FXLX",
"LXFXiXrXrXrX7X8X7X9XaXaXyX_.q > bXA.Y.v.c.c.Y.U.jXkXjXU.cXcXxXnXxXcXU.I.G.I.U.P.nXb.% e @XpXdX5X4XeXqXyX7X7X9X9XaXyX7X8XeXwXHXLX",
"HXCX].oXXX).XXoXXXXX)..XoXoXp.t.B V m.G.G.G.T.G.Z.Z.F.G.G.D.D.D.K.G.G.x.x.H.A.m.w V t.p.#X/.%X5X.XoXoXoX.X X.X.XXXoX.X XoX].GXKX",
"PXMX#Xg.g.f.j.f.g.f.g.j.h.h.j.s.@ , nXP.P.P.T.I.xXxXP.T.P.xXxXxXP.P.J.J.C.U.A.N.o y j.h.d.h.#X#Xh.h.g.g.h.h.h.h.j.g.h.h.#X#XDXLX",
"vXG.} ] [ [ [ ^ / [ [ ' ' ' ' ] o w P.m.U.Z.H.n.p p u w w e p p w a V.V.C.A.A.n.# 0 } ] ' ' ] ] ] ' ' ' ' ' ^ ^ / ' ' ] ] } T.vX",
"Y.T.} ] | ( ( ) ) ) _ ) ( { ' ] o B P.vXvXcXcXP.+ @ O O X @ @ @ X w N.cXvXcXbXZ.o 0 ] ] { { / ^ ( ( / ( ( ) ) ) _ _ ( { ] } Y.vX",
"DXzX~ T T S D D D S S S D T T U t e V a a s s a t t r r r r t t t t V a s s B V t r ! T S S E E T T T T S D D D S S D T U ~ MXDX",
"GX@XQ P P H Z Z Z Z A A Z H P K Q t O O O O O O Q W W P P P U U ! r y X X o @ O Q Q L H Z A R R A J J J H Z Z Z A A Z P W Q CXBX",
"GXfXQ P P Y H L L J J J H J P P L L F F G r r G P L L L L L P I F L r G K r r r I P H H Y H Z Z J J P P P L H J J J J P P Q CXBX",
"HX#XQ r G G K W K K G G F I K K F I P K U r U Q K K W W W K K K P W K W W K K U G U G G I I F J G G K K K K K K U G G G r Q zXDX",
"LXZXs.f.f.f.a.a.a.a.s.f.d.d.d.d.d.p.a.a.a.s.a.a.f.f.a.~.a.a.a.a.a.a.a.p.a.a.f.f.i.s.a.~.#X~.d.d.f.f.f.a.a.~.a.a.a.f.d.f.f.s.PXLX",
"LXPXZXZXZXZXDXHXKXKXDXZXMXMXMXZXDXDXKXKXZXPXKXKXAXAXHXHXDXDXDXDXKXDXKXGXGXDXAXZXAXAXKXHXGXGXGXGXZXZXZXDXGXGXGXGXDXZXZXZXZXAXPXSX"
};
