/* XPM */
static char *c5db56cf64a744f9c36ba0212eb267cdDu7DSW4K1foh5ifJ[] = {
/* columns rows colors chars-per-pixel */
"64 64 256 2 ",
"   c #050801",
".  c #150A01",
"X  c #041707",
"o  c #171707",
"O  c #061A14",
"+  c #141A16",
"@  c #271903",
"#  c #281A17",
"$  c #371B17",
"%  c #351306",
"&  c #032618",
"*  c #162616",
"=  c #2A2906",
"-  c #37270B",
";  c #262819",
":  c #392916",
">  c #393314",
",  c #281C27",
"<  c #1A2824",
"1  c #0C3129",
"2  c #272826",
"3  c #293526",
"4  c #363726",
"5  c #323330",
"6  c #181B20",
"7  c #4B120C",
"8  c #6E1210",
"9  c #482A19",
"0  c #55251B",
"q  c #453619",
"w  c #493510",
"e  c #462B23",
"r  c #542D22",
"t  c #483927",
"y  c #553325",
"u  c #4E3835",
"i  c #702A27",
"p  c #6A2619",
"a  c #39442A",
"s  c #2F4434",
"d  c #304B28",
"f  c #474528",
"g  c #504D36",
"h  c #695234",
"j  c #72693D",
"k  c #57471B",
"l  c #1A3747",
"z  c #0B4348",
"x  c #32534D",
"c  c #1C7573",
"v  c #2E6F6E",
"b  c #2A6357",
"n  c #4E544A",
"m  c #4F6551",
"M  c #706E52",
"N  c #4F746D",
"B  c #6B776C",
"V  c #6B5A4D",
"C  c #98161C",
"Z  c #901012",
"A  c #BA0307",
"S  c #B90817",
"D  c #A51319",
"F  c #B20F0D",
"G  c #932719",
"H  c #921525",
"J  c #AB1726",
"K  c #8C262B",
"L  c #AD2D2B",
"P  c #AC241A",
"I  c #C60209",
"U  c #D40509",
"Y  c #C90717",
"T  c #D30C18",
"R  c #D40E21",
"E  c #A0463B",
"W  c #CA3649",
"Q  c #87755B",
"!  c #AC6362",
"~  c #C86F70",
"^  c #D75F5D",
"/  c #B94040",
"(  c #668173",
")  c #5F8374",
"_  c #36807F",
"`  c #948756",
"'  c #96916E",
"]  c #A79A74",
"[  c #B1A87C",
"{  c #9BA27C",
"}  c #CC8D7B",
"|  c #477384",
" . c #CF7F88",
".. c #318C8D",
"X. c #13B1B6",
"o. c #39B7B7",
"O. c #30B0B3",
"+. c #249A9F",
"@. c #4F8F8E",
"#. c #70938E",
"$. c #75A198",
"%. c #4CADB4",
"&. c #71AEAC",
"*. c #50A9A0",
"=. c #0EC3BC",
"-. c #5AC5BA",
";. c #18B7CB",
":. c #17B7D4",
">. c #0CB2C7",
",. c #2AB9C6",
"<. c #31B4CC",
"1. c #50BBCA",
"2. c #72BCC9",
"3. c #3BC5D7",
"4. c #38C6D0",
"5. c #27C8D5",
"6. c #54CACF",
"7. c #6FD0D4",
"8. c #54D0E5",
"9. c #71D7E6",
"0. c #75EBEE",
"q. c #66E8EF",
"w. c #8C9989",
"e. c #B89191",
"r. c #96A48B",
"t. c #B2B08D",
"y. c #89B1AB",
"u. c #B5B7AD",
"i. c #B69DA0",
"p. c #C6B894",
"a. c #FDAEAE",
"s. c #DFA39D",
"d. c #8EC1BC",
"f. c #B1C4B7",
"g. c #D3CA99",
"h. c #E2D59C",
"j. c #C8C6A7",
"k. c #D5CEA9",
"l. c #DCD7A8",
"z. c #DBD9B8",
"x. c #D0CBB3",
"c. c #E6DAA8",
"v. c #E5DBB6",
"b. c #F9DCB7",
"n. c #F2D2AF",
"m. c #DAE9B4",
"M. c #ECE4AD",
"N. c #E5E3AC",
"B. c #F3E7AD",
"V. c #EBE4B3",
"C. c #EAE6B9",
"Z. c #F4ECBB",
"A. c #F6E8B6",
"S. c #FCF3BC",
"D. c #ECFFBD",
"F. c #97D2CC",
"G. c #8BD8D8",
"H. c #94D5DC",
"J. c #94DCDC",
"K. c #9CDCDC",
"L. c #98D6D7",
"P. c #92CBCE",
"I. c #A3DDDB",
"U. c #ABDCDC",
"Y. c #A8D9D7",
"T. c #B6DBDA",
"R. c #AED1CC",
"E. c #8AE4DA",
"W. c #94E2DC",
"Q. c #9CE3DC",
"!. c #99E6D9",
"~. c #95EBD7",
"^. c #A4E2DC",
"/. c #ABE4DC",
"(. c #A7E6D8",
"). c #B5E4DB",
"_. c #A5E0CC",
"`. c #87DBE7",
"'. c #95DBE2",
"]. c #9CDCE3",
"[. c #97D9E8",
"{. c #8BD1EB",
"}. c #A3DDE3",
"|. c #ACDDE3",
" X c #A6DCE9",
".X c #B5DDE6",
"XX c #ADDDF5",
"oX c #8AE5E6",
"OX c #95E3E3",
"+X c #9BE4E4",
"@X c #95EBE4",
"#X c #9CEAE4",
"$X c #95E5EA",
"%X c #9CE4EB",
"&X c #9CECEB",
"*X c #94EBEA",
"=X c #8AEBF7",
"-X c #98EAF7",
";X c #89FAFC",
":X c #99F6FC",
">X c #98F1E5",
",X c #A3E4E4",
"<X c #AAE4E4",
"1X c #A3EAE3",
"2X c #ABEBE4",
"3X c #A3E4EB",
"4X c #ABE5EA",
"5X c #A3EBEC",
"6X c #ABEBEB",
"7X c #B4E3E3",
"8X c #B7E8E9",
"9X c #A7F2EB",
"0X c #B7F4EC",
"qX c #A4ECF2",
"wX c #ABECF3",
"eX c #A7E9F7",
"rX c #B5E9F5",
"tX c #A4F3FD",
"yX c #A8F5F7",
"uX c #B8F7F8",
"iX c #D9DCC6",
"pX c #D0D5D5",
"aX c #F3D8D0",
"sX c #C7E6DE",
"dX c #D7E5D4",
"fX c #EAE8C6",
"gX c #F6EAC4",
"hX c #FDF3C4",
"jX c #FEFCCC",
"kX c #F8F4C8",
"lX c #FDE8D7",
"zX c #FDF9D7",
"xX c #EBEFD3",
"cX c #CDECEC",
"vX c #C9E8E6",
"bX c #D5E9EB",
"nX c #C8F3E9",
"mX c #C9EAF6",
"MX c #D5EAF4",
"NX c #C3FEFD",
"BX c #CCFEFE",
"VX c #C9F6F5",
"CX c #D8F9F8",
"ZX c #D4F5EC",
"AX c #FEE9E7",
"SX c #FDFAE7",
"DX c #E4FDFD",
"FX c #ECFEFE",
"GX c #E7F8F8",
"HX c #FEF5FE",
"JX c #F4FEFE",
"KX c #FDFCFE",
"LX c #FAFAF4",
"PX c #EBEEF0",
"IX c #E5DCE9",
"UX c #87BFC0",
/* pixels */
"KXKXKXKXJXJXKXKXJXFXFXFXDXFXKXKXJXKXJXKXJXJXJXJXJXJXJXJXFXJXJXFXJXJXJXJXJXJXFXJXJXJXKXJXKXKXKXKXJXJXFXLXSXLXKXHXHXHXKXFXCXDXKXHX",
"KXPXMXbXcXcXbXbXmXmXmXmXnXnXbXMXbXMXMXMXMXcXMXcXMXcXcXMXcXcXVXcXMXcXbXcXcXbXcXZXcXbXbXvXMXbXbXMXmXcXvXsXdXdXbXbXMXMXMXnXnXnXKXHX",
"LXbXU.K.^.(.U.Y.3X%X%X,X(./.U.|.I.<X^.<X<X^.<XI.<XI./.^.^.^./.I.<XI./.^.^./.I./.^./.I.^././.^.<X.X4X,X2X2X^.1X1X<XU.4XK.(.).LXKX",
"JXcXQ.E.W.#XQ.Q.].%XE.!.!.(.+X%XW.#XW.Q.+XW.#XJ.+XK.Q.Q.Q.Q.1XW.#XW.+XQ.!.Q.Q.#X!.#XW.#X#X#XW.#XH.].'.$XOXG.E.E.#XJ.5XJ.#X(.FXKX",
"GXnX,X$X3X3X5X4X|.|.W.~.!.(.$X-XOX#X+X#X#X+X#XQ.5X+X5X+X5X+X5X+X&XOX#X#X#X1X+X5XW.#XW.#X@X@XE.@X,X4X%XqXqX#X>X~.2XK.wX].qX^.GXLX",
"GXnX,X%X%X%X+X4X.XmX<X9X_.1X$X-XOX1X+X+X+X+X1X+X5X'.5X].3X].5X].&XOX&X+X+X3X+X5XJ.3XJ.9XOX&XE.9XI.7X,X].].,X2XQ.0XY.rX[.qX,XFXKX",
"LXbX|.%X%X%X].|.mXGXMXBXU.2X$X-X].<X}.,X,X].3X].3X].wX].wX].wX].5X$X%X+X3X3X].4X}.wX].wX].5X%XNXcXCXnX<X<X0XBXcXCXT.8XL.qX,XJXHX",
"KXbX|.%X5X5X<X4XBXCXBXCX.X8X].qX}.4X,X4X4X3XwX].wX].wX].wX].wX+X5X+X&X%X3X3X3XwX}.wX].wX].wX5XBXCXDXVX/.<XNXBXNXCX8X8XL.0X7XJXKX",
"HXIX,XoX+XQ.nXuX6.O.9.yX.XDX.X|.K.5XJ.+X%XG.%X$X%X$X&XJ.&XG.9XW.&XE.OXyXG.%X'.3X'.3XH.3X%XNX3X*.&.6X8XuXuX&.o.o.o.7.BX.XT.T.DXFX",
"HXMX6X@X1X2XCXNXO.X.q.:X8XFXcX8X,XyX+X5X-XqXqXOXyXG.yX&X&X9X9XG.9X>X@X@XyXqX$XqX%XqXG.qXwXBX3X*.1.=X:XNXNX6.,.X.O.9.BXvXT.sXFXFX",
"JXvX+XG.!.(.ZXNXo.X.4.6.L.DXvXT.L.+XG.G.G.&XOXJ.&XG.1XP.2X&.b @.!.W.W.G.+XJ.G.&X'.qXJ.3XwXBX+X..<.3.3.8.8.X.:.>.X.9.NX)._.T.FXFX",
"JXMX6X+X1X2XBXBX%.O.+.*.P.CXVX8X<XwX5XyX5XqX+XwX6X6X0XU.CX#.X N VX0X0X0X2X6X5XwXJ.yX+X5XqXBX<X%.<.:.:.>.:.:.:.<.<.`.BX0X(.(.FXKX",
"JXvX.XK.@X~.2X8XP.{.H.P.K.0XK.5XP.].J.,XK.K.P.L.7X#.B B ( n 3 a B N N ) F.Y.L.K.H.6XH.3X].rX}.G.8.>.:.:.:.:.;.8.{.[.uXU.(._.DXKX",
"JXbX8X3X&X@X5X4XCXFXDXCXuX9XG.qX+XyX+X<XrX8XVXvXcXn + + o : g e # 6 < < sXnX8XNX4XwXH.uX4X4X8XBX:XO.,.:.:.;.<.:XBXrX8XL.9X2XJXKX",
"GXsX|.]. X'.+X].mXmX4X6X!.Q.H.eXJ.#XG.K.K.@.&.#.y.n 2 4 e r 0 9 : : 2 2 w.y.$.$.P.+XG.5XJ.K.K.uXJ.-.6.X.O.6.6.oXNX|.|.P.#X<XFXHX",
"FXnX8X4XwX3X5X3X.X.X+X&X!.5X XwX3X9X6XNXY.1 1 O 6 2 u e r i 0 y y e u u + * & & y.0X0X0X^.0X<X^.(.BXtXO.o.;XuX&X<X|.rX].&X<XJXKX",
"FXcXY.I.^.Q.K.K.L.wXG.&XG.5XL.|.d.y.$.y.#.3 3 ; 4 : e r 0 0 0 0 0 y y 9 t 2 3 < B y.$.&.P.I.3X].K.uX9X&.2.+XuX&X<XH.3XJ.#X^.JXHX",
"JXMX).(.1X(.,X<XwXwX%XtX'.uXI.VX$.  < * X ; @ u t y y y r r r r r 0 0 y e u # ; ; + *   N BXP.uXrX6X<XNXCX8XwXP.wX].qX+X&X2XJXKX",
"FXcXY.I.Q.+XQ.,XH.3XG.qXG.,XY.R.#.s s a f g t q 9 9 9 9 9 9 9 9 9 9 y t : : t g t f g s N R.F.U.H.3X].uXBXI.+X5XqXH.5XJ.#X^.JXHX",
"FXcX|.^.#X&X+X3XH.yX].5X+XuX#.  M SXiXfXxXfXlXt - - - - : - : - % - - @ : - x.zXv.xXz.SXw.  x 8X XwX3X%X3XH.'.%XqX'.qXJ.#X/.JXKX",
"FXmX<X+X&X&X%X3X3X3X].K.Y.nX#.* M fXC.fXC.C.gXq - - > - q : > - > > - = > = j.kXZ.gXl.kX{ = n sXI.eX'.3X3X3XyXG.qX'.qXW.#X/.JXKX",
"FXmXI.+X$X$X$X3X].<XF.0X) & B iXk.gXC.Z.V.A.Z.l.c.l.v.k.v.k.z.k.v.k.z.C.k.k.v.Z.c.V.V.Z.l.C.r.* b wXH.,XrXL.qXG.qXH.5XJ.!./.JXHX",
"FXVX<X,X&X&X3X4XU.nX).ZX)   M SXgXhXv.A.v.V.A.A.hXA.hXV.jXC.gXC.kXN.C.gXgXjXV.Z.c.S.A.hXZ.zXj.X x 7X8XY.7X8X6X3XwX].wX+X#X/.JXKX",
"FXcXU.K.+X$X].I.N s m s ( z.u.fX[ k j Z.V.c.A.c.M.c.V.l.Z.c.C.l.M.M.N.l.C.l.M.M.c.A.` w ` C.j.j.r.x x x x d./.K.3XH.3XJ.#X^.JXHX",
"JXcX8X,X9X1X0XnX3 X X X ( zXv.zX] . > hXS.B.hXA.hXM.S.c.S.Z.Z.M.S.B.Z.A.Z.S.V.Z.c.jXj . M lXxXSXj.X X X O f.CXI.rX].wX+X9X2XJXKX",
"JXsXY.F.Q.d.) N w.r.r.{ j.kX] j Q ] t.Z.N.l.h.c.B.h.M.c.B.h.c.h.M.h.M.c.c.M.N.B.c.A.p.] ` V ` iXj.{ { t.r.m N y.8XL.3X'.#X^.GXHX",
"JXvX8X6XuXF.l X x.SXzXgXC.jX' . M kXfXC.C.jXjXA.A.B.hXB.S.A.S.S.B.S.S.Z.S.V.jXhXZ.Z.A.zX] . g zXgXjXZ.kXxXa & $.0X}.wX+X9X2XFXKX",
"JXvXY.F.I.P.1 * u.gXg.V.l.Z.] @ j kXv.C.c.' ` g.S.g.c.c.Z.p.` ] S.h.c.h.V.V.] ` p.hXc.V.] o g fXg.c.V.l.fXg & y.8XL.3XJ.@X^.GXKX",
"FXcX0X6X0XY.1 3 z.jXc.hXV.jX'   j jXC.jXl.o . g.hXZ.zXC.kX] @ h jXc.jXhXhXgX= . [ S.c.hX] . g zXjXB.Z.C.fXg O y.VX}.wX+X9X2XJXKX",
"FXcXU.L.Q.F.1 ; p.A.c.Z.t.t.' h ' Z.c.V.l.j j k.gXt.t.p.zX]   V jXc.[ t.C.C.j h g.M.c.jX[ g M t.[ B.l.C.fXa & y.8XH.3XJ.#X^.FXKX",
"DXmX<X,X9XF.3 * v.hXB.hXM   M zXC.Z.M.V.A.S.jXv.zXf   ` SXr.. M zXp.. > k.kXjXZ.c.S.B.A.c.jXj.. k hXkXxXxXs & &.uX}.wX+X9X2XKXKX",
"FXmX|.K.5XF.x s t.x.p.z.M X B xXl.c.M.A.M.l.V.V.gXM > ' iX' 4 V z.t.q f fXC.l.V.M.M.h.B.c.C.t.o f x.j.j.iXx 1 &.8XH.3XH.1X/.FXKX",
"JXMX.X,X1X#X,X7Xs O 2 ; ; * B SXz.kXZ.B.V.V.Z.B.b.b.zXQ . M zX] . f lXb.A.B.A.Z.M.M.B.B.N.jXt.= ; ; # + 3 F.2XQ.6XK.6XI.2X7XFXKX",
"JXbXY.K.OXOXOX,Xb x 5 5 3 * B iXx.l.g.B.S.l.N.c.A.n.gXQ = M jX[ = j A.A.b.B.c.V.l.hXc.c.l.z.r.* < x x l z UX9XG.,XL.<XL./.T.DXJX",
"KXbX/.Q.@X@X%X4XU.Y.T.vXB + 2 ; = = k hXA.M.D.N.gXgXgXv.jXfXC.C.C.M.A.B.B.S.m.m.l.zXM % $ 4 2 < x R.T.T.I.5X&X&XqXJ.5XQ.<X7XFXKX",
"JXbX^.W.@X@X+X3XY.8XR.sXB + 2 ; ; = h b.l.N.m.m.C.v.gXfXfXz.C.z.gXkXC.l.c.N.m.m.m.zXQ : $ 5 2 < x ).R.U.Q.#X$X$XqX'.qX'.<XU.FXKX",
"JXcX^.~.@X@X+X<XY.nXm 5 5 o M xXf.iXi.9 g q a a f 4 g 5 4 a a a 4 4 s a g t d d q > ' z.x.fXt.o ; s x R.1XW.qX$XeX[.-XOX,X.XJXKX",
"KXZX(.@X*X&X3X8X7XsXn # 0 7 Q lXxXLXx.% 7 7 % % e . # ; + # $ # ; O O + % 7 % @ 7 % ] SXxXSXp.- 9 . 2 T.VX1X3XqXeX[.tX$X5X7XJXKX",
"JXcXQ.W.@X+X}.|.N n u i K 8 i V n n h i Z D D C 8 e.x.i.j.! 8 E s.u.R.u.K H Z C Z Z i h g V i p 8 K i u m P.3X].XX[.eX'.#X^.FXKX",
"KXZX1X#X-X5X3X7X5 # i H J C 8 % o . 7 Z S I T S J a.AXSXSXs.D ^ AXSXLXlXJ R S Y Y S 8 % . @ 7 Z J D K 7 6 P.NX XrX XeX$X5X2XFXKX",
"JXvX}.'.[.%XH.U.5 $ H S Y A E e.] e.~ Z Y U U R D a.AXe.~ L Y R ^ ! zXaXD Y Y U U S ! e.e.e.~ J Y I C 7 2 d.,X].XX X3XG.!.(.GXJX",
"KXMX8XwXeXtX%X<Xs 0 C Y R Y ^ lXSXlXa.P A T T A C a.AX~ L F I U S / lXb.G F A U U A s.LXAXHXa.S T R D 7 < P.uXG.eX XrX,X9X).FXJX",
"JXvXY.H.[.-X'.^.5 7 Z Y T A ^ lXaXlXa.D A I F ^ ~ a.AX~ C S I I A W lXaX~ ^ P F T F } SXiXSXa.Z I S Z 7 1 *.7.7.-X[.3XL.Q._.ZXJX",
"JXMX8X XeXtX-X6X5 $ H J S D ~ SXAXLXa.D R A D n.AXlXHX~ J Y T U Y W AXLXAXlXL F A F } SXxXSXs.C F J K $ 1 ..+.7.tX%XwXK.2X).FXLX",
"GXvX.X X-X=X`.OXv n i 8 Z K ! SXiXSXa.Z I I Z a.SXiXAX~ D Y U I S L AXaXlXlXP A I S ~ LXIXLXs.p 8 i r n b *.-.6.=X`.%XH.6X).GXJX",
"FXvX7X X-X:X=XtX6XvXV 7 7 7 M HXdXLXa.C S S G n.SXxXLX .J F F F D / LXLXLXlXL F T D  .HXIXKXx.% 0 % $ pX0XW.:X0.:X-XtX].4X7XJXKX",
"GXsXU.].-X=X0.oXJ./.m 5 2 6 ( PXpXAXe.i G 8 p s.xXpXaX! H Z G G G E aXdXIXx.E Z Z H e.IXbXbXi.% $ u n u.R.H.:X9.oX`.eXH.}.T.JXKX",
"FXvX<X%X-X9.%.O.G.9XF.8X#.O < 2 , $ e 7 7 7 % : 2 # u 7 8 7 7 7 7 7 4 + < ; 7 7 8 7 $ 2 < 2 2 $ n PXpX5 1 G.-X1.%.2.-X%X6X8XFXKX",
"JXvX,X'.:X0.o.o.E.5XK.8XB X 3 4 4 4 : q > t > > 4 4 t e y 9 t w w 9 : 4 3 3 f q w w - t 4 4 5 # n IXR.z z 7.=X1.%.2.qX'.4X.XFXJX",
"JXvX,X$X=X;X0.0.*X$XG.uX@.O B xXk.C.k.gXz.x.fXv.v.v.v.v.C.k.z.z.C.v.fXz.iXdXz.C.v.c.v.V.z.xXr.2 , l z @.+.0.;XoXoX[.yX].<X7XDXGX",
"JXZX5X*X0.=XtXeXeXtX=X:X..& N xXgXhXA.A.b.A.hXv.hXjXZ.c.S.A.Z.B.S.c.B.kXC.gXhXA.b.A.B.V.z.SXu.1 l z z O.O.q.;X9.eX%X-XJ.6X8XJXKX",
"FXvXQ.7.%.%.[.H.[.-X6.<.O.+.v x Q n.n.n.n.Z.v.h w [ Z.c.c.l.M.c.B.c.V.l.k w l.b.n.b.c.zXr.s b _ ..+.+.X.=.X.1.9.eX[.&XG.Q.Y.PXKX",
"JXZX9X9.O.o.%XeX=X;X3.X.;.3.c O M zXxXzXzXxXzXf o t.zXkXzXkXzXfXkXxXzXz.> @ x.SXgXzXiXLX$.O z 1.o.5.5.X.5.X.+.`.eX[.qX!.2X).LXKX",
"FXcX^.oX6.7.$X-X%.4.;.:.>.;.1.2.#.m m m m m m 3 < n m g m m V g m x m m < ; n V V M m b v ..+.q.3.>.>.X.X.q.9.{.eXG.OXG.(.T.PXLX",
"JXZX7X%X:X:X*XoXo.X.X.:.:.;.8.yX&.O & & & & X 1 & & & O +   o + & & & & 1 1 O + X X O & b %.6.;Xq.;.X.,.<.0.:X-XtX-XyX+X2X).FXLX",
"FXcX.XL.$XoX7.:X6.6.8.8.<.,.<.8.%.c c c c c ..c v v v N #.#.#.N v c c v v v v b @.@.v c ..O.<.3.3.4.8.1.1.`.tX7.7.7.*XG.I.Y.DXJX",
"FXMX.X8XrX3X#X>X&XtX:X:X8.<.+.,.O.,.,.,.,.,.,.,.<.1.O.9.yXtXuX`.<.,.<.<.<.<.o.o.0.:X8.O.,.;.:.>.4.0.;X:XtXtX-X%.%.6.:X@X0X7XFXJX",
"DXvXU.|..X}.W.~.L.].[.-X7.6.o.6.4.3.3.3.3.3.3.3.3.6.1.8.=X9.=X7.1.<.3.<.<.4.<.6.8.0.6.6.3.3.3.3.6.=XoX$X$X[.-X7.6.7.:XG.,XY.DXFX",
"FXnX<X3X6X5X~.~.1X6X%XtX-X:X0.;X=XtX-X:X:X:X:X:X:X-X-X-XuX%XyX%XtX-XtX:X:X:X:XtX*XtXoXyX:X-X:XtX*XyX*X-X&X$XtX$X*XoX:XE.5X7XJXKX",
"DXnXI.J.+XW.E.~.!.^.J.%X'.&XE.@XJ. X].]. X].3X'.%X'.5XG.<XL.K.J.%X'.%X].].+XJ.+XG.Q.P.6XL.I.I.^.Q.#XW.@X@XW.#XOX&XE.>XG.,XT.FXKX",
"FXZX7X,X+X#X~.~.!.(.Q.+XK.1X!.!.+X4X,X3X3X,X5X+X5XOXwXW.9X#X#X#X&X@X&X+X+X#X+X5X#X9XW.uXJ.2X(.(.I.<X^.1X1X,X<XI.2XK.2XQ.7XvXJXKX",
"GXbXT.|.<X,X(.(.(./.<X8X7X7X).).Y.<XY./.U.U.<XI.<XI.<XK.^.^.!.Q.2X^.2X<X/.<X}.4X}.<X,X6XF./._._.Y.).).U.U.).).Y.7XU.).Y.T.sXGXKX",
"JXFXGXGXGXGXGXGXCXCXGXGXDXGXPXGXCXDXDXDXFXDXFXGXGXFXGXGXGXGXGXCXCXZXCXGXGXGXGXGXDXDXDXDXGXDXGXGXCXDXGXGXGXGXDXCXCXCXFXPXPXPXKXJX",
"JXLXKXKXKXKXHXKXKXJXKXKXKXJXKXKXJXJXJXKXKXKXKXKXKXKXHXKXKXKXKXLXJXFXKXKXKXKXHXKXKXKXKXKXKXLXLXJXJXJXKXKXKXKXJXJXFXFXKXKXKXKXJXGX"
};
