/* XPM */
static char *_80dfad9b9cc46c2cbf83932b8f68f1eomrCopSti0m4RMrg[] = {
/* columns rows colors chars-per-pixel */
"64 64 255 2 ",
"   c #0B0202",
".  c #080306",
"X  c #170A06",
"o  c #1B1502",
"O  c #191406",
"+  c #0C0513",
"@  c #190A16",
"#  c #1F1318",
"$  c #231C02",
"%  c #261707",
"&  c #281818",
"*  c #2C1412",
"=  c #292406",
"-  c #2C2419",
";  c #3C3517",
":  c #352B0B",
">  c #1C1326",
",  c #291927",
"<  c #341D2D",
"1  c #2E2228",
"2  c #392925",
"3  c #3A2A38",
"4  c #322D35",
"5  c #49291C",
"6  c #562D1C",
"7  c #423C11",
"8  c #452D23",
"9  c #483727",
"0  c #523326",
"q  c #473936",
"w  c #492A2F",
"e  c #494219",
"r  c #4C4427",
"t  c #494336",
"y  c #554738",
"u  c #5C5436",
"i  c #564F28",
"p  c #645B3A",
"a  c #614F3B",
"s  c #616235",
"d  c #382F44",
"f  c #463746",
"g  c #4C3751",
"h  c #503B64",
"j  c #594846",
"k  c #574657",
"l  c #4E4A48",
"z  c #695C47",
"x  c #635055",
"c  c #797658",
"v  c #736C50",
"b  c #5C4A65",
"n  c #545265",
"m  c #685766",
"M  c #685B75",
"N  c #6B5571",
"B  c #766C6E",
"V  c #827C5C",
"C  c #837A66",
"Z  c #847678",
"A  c #91747A",
"S  c #8E8A58",
"D  c #938D6E",
"F  c #A69B79",
"G  c #A59F6B",
"H  c #A9A67A",
"J  c #B3AC78",
"K  c #7A6885",
"L  c #7D718D",
"P  c #877688",
"I  c #8C758F",
"U  c #B57692",
"Y  c #9B77A2",
"T  c #CB7795",
"R  c #C676A8",
"E  c #D077AF",
"W  c #95888B",
"Q  c #998A99",
"!  c #948B8F",
"~  c #AD9597",
"^  c #ADA885",
"/  c #B5AA89",
"(  c #BAB38A",
")  c #BBB896",
"_  c #B4AA98",
"`  c #9891A2",
"'  c #A796A7",
"]  c #AB96B6",
"[  c #AC95AC",
"{  c #B7A8BA",
"}  c #B2AAAC",
"|  c #C5BB97",
" . c #C984B8",
".. c #D685B9",
"X. c #C794AB",
"o. c #C4BBA7",
"O. c #D9A4B8",
"+. c #C9AEB7",
"@. c #E28DAD",
"#. c #CAC49A",
"$. c #D7CB9A",
"%. c #DAD699",
"&. c #C9C68F",
"*. c #E3D99C",
"=. c #E8E69D",
"-. c #CAC5A7",
";. c #D3CBAA",
":. c #DBD4A4",
">. c #DCD5AC",
",. c #DAD6A6",
"<. c #CCC5B7",
"1. c #DBD5B6",
"2. c #D5C7B2",
"3. c #E2D6A3",
"4. c #E3DBA4",
"5. c #E3DCAB",
"6. c #E9DEAA",
"7. c #E6D9A8",
"8. c #E4DDB3",
"9. c #E8DCB5",
"0. c #EAE3A5",
"q. c #E6E2AC",
"w. c #ECE4AC",
"e. c #EDE9AC",
"r. c #E7E4A4",
"t. c #F3EAAC",
"y. c #F2E6AB",
"u. c #EBE3B3",
"i. c #EDEAB3",
"p. c #ECE4BC",
"a. c #EEEABC",
"s. c #E6E2BA",
"d. c #F4EBB4",
"f. c #F3ECBB",
"g. c #F9EEBB",
"h. c #F5E8B4",
"j. c #FAF2B5",
"k. c #F6F1BB",
"l. c #FBF3BB",
"z. c #F7F3B5",
"x. c #F4F2AF",
"c. c #DEE1B4",
"v. c #BBA9C9",
"b. c #BDB1C8",
"n. c #DB9ED4",
"m. c #D394C6",
"M. c #E995CB",
"N. c #C5ACC9",
"B. c #C9B8CA",
"V. c #CBABDB",
"C. c #C7AAD7",
"Z. c #D2ADDC",
"A. c #D8A7DB",
"S. c #CCB4D4",
"D. c #CCBAD4",
"F. c #CDB4DC",
"G. c #CDBBDB",
"H. c #C5B5D7",
"J. c #D3BBD4",
"K. c #D3B4DD",
"L. c #D3BCDC",
"P. c #DABCDC",
"I. c #D5B4D7",
"U. c #D6B5CA",
"Y. c #EBA8D8",
"T. c #CCADE3",
"R. c #C9ACE5",
"E. c #D2AEE3",
"W. c #D5ADE7",
"Q. c #CDB4E2",
"!. c #CDBAE3",
"~. c #CDB9EA",
"^. c #D4B4E3",
"/. c #DAB4E4",
"(. c #D4BBE4",
"). c #DABAE5",
"_. c #D4B5EA",
"`. c #DAB5EB",
"'. c #D5BBEA",
"]. c #DCBBEB",
"[. c #DBB6F2",
"{. c #D6BAF3",
"}. c #DCBBF2",
"|. c #D5B6F3",
" X c #CFB7F1",
".X c #E5ACE4",
"XX c #F8ABE4",
"oX c #E2BCEC",
"OX c #E7B7E8",
"+X c #F6B7EC",
"@X c #E2BDF3",
"#X c #E8BDF6",
"$X c #F8BBF3",
"%X c #CDC1D8",
"&X c #D3C2DC",
"*X c #DBC2DC",
"=X c #D6C7D6",
"-X c #D3CACA",
";X c #E6DAC8",
":X c #E6CEDB",
">X c #EBE5C4",
",X c #F4EDC2",
"<X c #F5EBCA",
"1X c #FBF3C3",
"2X c #FEFAC5",
"3X c #FCF4CC",
"4X c #FFFCCC",
"5X c #F5F3C5",
"6X c #FDF4D3",
"7X c #FEFCD4",
"8X c #FFFDDD",
"9X c #FCF4DA",
"0X c #F3ECD0",
"qX c #CDC3E3",
"wX c #D4C3E3",
"eX c #DBC3E4",
"rX c #DBCAE5",
"tX c #D6C2EC",
"yX c #DCC2EB",
"uX c #DACAE8",
"iX c #DBD5E4",
"pX c #DDC3F2",
"aX c #DBC6F6",
"sX c #DEDAF5",
"dX c #E2C3ED",
"fX c #E3CBEB",
"gX c #E6C7E7",
"hX c #E8D6EA",
"jX c #E3C3F3",
"kX c #E3CBF4",
"lX c #E3C3FB",
"zX c #E9C9F8",
"xX c #F6C7FA",
"cX c #EAD5F8",
"vX c #F3DCF7",
"bX c #F9CDE6",
"nX c #EAE4EA",
"mX c #F4E7EB",
"MX c #FEFAE6",
"NX c #ECE3F4",
"BX c #EBE8F9",
"VX c #F3E4F4",
"CX c #F4EBF5",
"ZX c #F3E6FB",
"AX c #F4EAFC",
"SX c #FCECFD",
"DX c #FCE8F8",
"FX c #FFFCF5",
"GX c #FFF6FF",
"HX c #FEF4FE",
"JX c #F4FEFE",
"KX c #FFFAFF",
"LX c #FEFBFE",
"PX c #F7F6F7",
"IX c #DCE0E1",
/* pixels */
"PXLXPXLXLXGXLXLXLXLXLXLXLXLXGXLXLXLXLXLXLXLXLXLXGXLXGXLXGXLXGXLXLXLXLXLXLXLXLXLXLXGXLXGXLXGXLXLXGXLXLXLXJXLXLXLXLXLXLXLXHXFXFXMX",
"LXLXCXNXAXZXZXZXNXAXNXCXNXCXVXDXVXCXVXVXCXVXVXDXVXDXVXDXVXDXvXDXVXZXZXVXZXZXZXVXAXVXSXVXSXZXSXZXSXVXCXCXCXBXCXBXZXVXVXVXmXCXFXFX",
"HXVX=X&XeXL.).eXL.eXJ.*XJ.*XJ.eXL.wX&X&X&X&XL.eXL.eXL.eXL.eXK.eXP.&X&X&X&X&X&X&XL.D.L.D.&XD.L.D.yXF.wXG.wXD.wXG.wX(.wX&X&XiXCXLX",
"HXVXJ.I.).^.).).K.eXI.P.L.P.I.oXK.wXG.(.(.(.(.yXQ.].^.'.(.].^.].(.L.(.K.K.L.(.K.eX(.yXL.yX(.eX(.jX^.jX^.oX^.zX^.].^.'.!.G.wXAXLX",
"GXDXP.P.dX].oX@X].dX).oX).dX/.dX'.pX'.pX].jX'.jX'.pX].pX].pX`.jX].].].).].yX].).).^.].K.].^.).^.].W.#XA.OX.X$XW.#X{.aX~.tXtXSXGX",
"GXVXL.K.]._.`.`./.oX^.)./.].^.].^.].^.].^.pX^.].^.].^.]._.].^.].^.).]./.`.].`.^.].].@X).jX].].).jX/..XY.$XXXXX.X#XW.pX!.tXwXSXGX",
"LXZX&XwXpX'.'.}.].jX).].].}.'.pX^.dXK.dXK.dX^.dX^.oX).].].oX/.oX`.].oX].].].].`.].`.].^.oX/.`.^.oXm.[ m.XXM.E m.$X^.pX!.uXwXSXGX",
"LXBX%XqXtX~.'.pX`.@X/.].`.}.~.pXK.dXK.dXK.dXK.dX/.oX/.oX/.oX^.].`.].].].].].].`.}.].@X`.@X`.]./.xXm.U M.+XM.R ..$XI.yXH.uX&XSXGX",
"GXVX%XD.wX!.'.]./.OX/./.oX).^.yXK.).V.).Z.dX/.).V.zXK.oXK.oXZ.).K.]._.].].^.].].].^.].^.].^.].K.gXX.R R ..T E ...XI.).H.&XD.SXHX",
"LXDX&X%XuX'.].oXOX.X.X+X+XOXoXdX].zXoXzX^.jX/.oX`.zXZ.jX/.].].dX].yX'.(.].yXyX(.yX].pX(.jX].yX).gXm. .R E E ....+XOXdX(.uX*XGXGX",
"HXvXJ.S.(.K./..Xm...Y.XXm. .A.OXC.`.W.[.T.}._.].V.jX^.jXE.].].^.(.K.).^.^.yX(.F.(.(.(.S.(.(.(.K.oXA.Y. .R E Y.n.OX/.].F.wXG.SXHX",
"GXDX*XP.dXoXOX+X .E XXXX..R Y.xX#XlX[.zX[.lX].jX}.pX}.zXzXzX^.zX].K.dXyX(.yX(.(.yXyXdX(.dXyXyX).oXOXxXA. .m.$X+X#X}.lX'.pXwXHXGX",
"HXvXJ.I.)./..X.XE R E ..R R n.OXW._.T.}.V._.E.].V.].] h M ).C.).(.^.(.(.^.(.^.(.(.(.].F.].(.).^.#XA..XA.m.A.#XE.[._.[.Q.'.G.SXHX",
"GXSX&XL.yX].OX+X..E E E E  .n.OX`.jX].zX].zXyXdXeXvX] > h cXhXeXS.jX].].jXdXjX].jX].jX).jX].dX).xX`.#X@X@XoXzX`.lX}.jX'.dXeXGXLX",
"HXNXG.H.qX!./..Xn.M.E R m.n.A.jXC.).S.I.N.J.Y b m k f 1 f m k x P ^.^.V.^.Z.].C.`.^.].K.].^.`.E./.Z.].(.(.H.(.Q.].^.).K.eXJ.SXGX",
"LXAXqXqXaXtX@X#X$X+X .R +XxXOXgXL.cXeXfXhXvXP @ * * 8 q 2 * - * f eXvXzXzX].zX}.jX}.jX].jXoXjX/.zXoXoX).pXtXuX(.yX].jX).fX=XGXLX",
"LXVX%XG.'.^././.A..Xn.A.W.].N.P.v.uXQ m m B j 2 5 5 5 5 5 5 5 5 9 B m m M v.'.W.|.R.{._.^.Z.).Z.).Z.].V.'.F.(.S.).^.}.W.yXD.PXFX",
"LXCX&X(.jXoXoXdXzX#X`.zX_.kXcXhXrXhXm , & * 5 0 6 6 6 6 6 6 6 0 8 % X & 3 B.cXzXcX{.lXlXjX].jXoXjX`.lX_.jX'.fX).dX].lX[.jXwXLXLX",
"GXVXG.F.].^././.Z.oX}.}.V.F.P B B ! f , 2 2 : 0 5 6 6 6 6 6 6 8 9 - 2 2 , Z P K K v.yXC.^.].].Z.oXZ.}.T.}.Q.yXS.).^.[.W.].G.PXFX",
"LXSXrX(.jX].].oX/.oX).].vXZXf     O O % 2 y 5 0 0 0 0 0 0 0 0 0 8 q q & X O   X @ +.ZXeXkX^.}.[.jX/.jX_.lX'.jX).dX].lX[.jXwXLXLX",
"GXNXG.Q.].^.).).gXK.K.K.I W B c c c c c t : 5 9 5 5 8 8 8 8 8 8 2 2 2 c C V c C C D Z { zXC.{._.].K.}.T.{.Q.].K.).^.}.W.].G.PXFX",
"LXSXrX'.jX].dXgXP.P.hXcX1   <.9X,X7X>X8XD o : % % % % % % % % % * * 8 <X3X7X1Xf.7X;   ' vX(.zXQ.jX(.jX_.aX'.jX).jX].lX`.jXwXLXLX",
"LXVXL.Q.].^.L.I.B.&XQ ' B l -.c.$.q.,.a.H i p z z z z z z z z z z a v p.7.w.4.4.5.u v W Q v.yXF.eXS.].T.{.R.].V.].^.[.W.'.G.PXFX",
"LXZXwX(.jXyXgXgX=XhX3   -XMX1.7Xi.x.i.q.f.7X>X9X6X6X6X6X3X3X3X3X6X3X<Xp.f.e.d.z.1X4X8X9   ' fXuXfX*XkX'.lX|.lX].jX].#X`.jXwXGXLX",
"LXhXwXF.G.L.Q ~ W ~ B x <.>XH H &.0.*.w.:.u.7.9.>.9.5.u.:.5.q.4.7.9.3.h.4.4.w.J J ;.>Xc v Z ' W ~ [ yXV.aX_.Q._.].^.}.^.yXL.HXLX",
"LXSXuXH.vXD., X O o -XmX;X8Xs   J l.0.l.6.g.u.1Xf.f.9.h.l.2X4.d.h.h.l.*.w.4Xi.:   >.MX>XMXz X & X P cX'.{.{.zX].oX`.@X^.yX&XHXLX",
"LXhXuXG.{ [ m y u y o.0X-.) s e J l.*.h.3.h.$.g.:.u.l.6.%.4.%.t.0.*.0.7.g.5.:.v u ( / ;.0Xc r u y Z ] v.'.C.}._.oX/.@X^.yX&XGXLX",
"LXNXuXb.> 1 ;X9X>X6X<X>X9 o J 4X*.l.6.w.w.4X3.g.g.6.w.d.d.l.j.t.0.j.t.h.f.,X3X>X0X; $ ) 6X,X3X>X8XC @ K cX{.pXE.oX/.oX^.yX&XHXLX",
"LXAXD.b.3 2 ;X9.u.u.9.>Xr = J i.7.h.w.h.$.&.3.f.:.f.6.u.6.&.$.4.w.y.6.u.9.#.-.>X6X; = ) a.5.8.:.7XC @ L cXR.pXoXoX/.oX^.yXL.HXLX",
"GXZXrX{ 1 9 >.1Xw.u.,X<X9 $ ( 1X:.h.4.2XS X S 1X5.,X5.4X| o i 4X8.f.u.u.8.: = -.>Xr $ ) 7X5.u.f.3XD X P cX'.pXC.oX/.oX^.yXwXHXLX",
"LXhXrXb.& 9 5.w.0.t.:.8.a : #.p.u.k.5.4XS o S 4X,.>.8.<X^ $ p <X9.>.8.p.9.e ; -.6Xr : H 8.5.f.,.5XV X P kX!.pXdXoX/.oX^.yXwXHXLX",
"LXCX%Xb., 2 >Xu.8.1Xi : | s.5.,X4.f.6.i.4.i.,.2XG o p 8X-.o j MX| = e >.,X>.8.p.s.>.<Xp $ H 4X:.7XC X P cX!.(.^.]./.].^.yXG.HXLX",
"LXCX%XB.< q ;X0X;X0Xr $ #.2X:.k.e.0.4.z.r.i.q.2XD o p 9Xo.* j mX2.$ e f.q.6.2X8.p.<X;Xz $ H ,X8.9XZ @ K cX(.yXK.@X`.#X|.pXwXGXLX",
"FXCXJ.S.N.[ g 3 f 3 - : ( z.i.u.*.y.0.t.%.w.,.i.5.9.F : j ~ I 2 y 1.;.q.z.w.w.u.p.8.MX9 % ; 9 ; 2 Z J.H.F.V.(.(.`.W.[.W.].G.PXFX",
"LXNXuXL.gXI.w , < f 1 = ,.f.,.f.6.j.w.d.4.z.q.i.:.3X/ % q ~ A * q MX9.5.e.0.y.w.h.8.<Xz - 2 1 , , Z cX!.'.pXzX^.jX].lX[.jX&XLXLX",
"LXNXrXyXS.P.N.N.v.B.3 O ;.8.8.,Xw.y.$.w.4.w.:.i.u.<X/ % 0 ~ A * y 8.p.u.4.0.0.*.w.u.0Xj X Q %XH.N.N.tXQ.aXV.kXV.]./.[.W.yXJ.DXFX",
"LXSXG.(.dXdXeXfXyXcXd 1 1.7X>X6X9.1X7.l.d.d.q.k.>.3X/ % 9 _ A % 9 s.5Xa.g.w.t.z.i.s.9Xj # ] zXR.cX(.kX~.lXR.zX^.jXoXlX`.dX=XFXFX",
"LXAXtXQ.yX].N.K.Q.H.b.{ y r u 7 / h.6.d.4.w.q.i.>.f.1.| ^ 9 y 2.| ,X5.5.5.4.i.i e r r ! N.v.aX X'.C.aXR.{.~.^.^.].^.].E.eXJ.DXFX",
"LXhXyX'.^.].jXcXaX~.uXiXt $ %   J g.6.g.w.d.i.k.f.a.8.6Xo.X 9 8Xz.r.w.f.3X3X7X; o $   } hXG.cX~.zXyXkXaXcX'.'.yXdX].jX`.dX*XHXFX",
"LXVXF._.pX^.).V.R.tXb.-Xt $ D | | g.$.w.w.r.%.w.%.d.5.u.5.F | 6.*.%.e.:.s.p u ^ ( ) o.x k ] aXI h N h Y '.H.yXC.).^.[.E.].J.CXHX",
"LXDXeX].jX].dXpX}.tXfX=Xt o ) 9Xu.h.g.l.e.z.t.z.e.z.d.k.f.1Xf.l.t.x.0.f.>X$ X 1.6X0X9Xz X Q ZXb + , > L AXtXvXwX).zX[.[.cXyXVXLX",
"HXVXL.F.).^.).(.Q.tXK m F F ;.>Xu.w.%.e.r.0.%.0.%.4.%.4.4.w.3.w.%.r.w.5.1.F ^ ;.>X;.;Xq & ' uX[ ' m , g M M b I fXC.[.T.C.(.HXLX",
"LXCXeX(.dX).].].^.cXf & 1.3Xs.,X>.1Xu.l.w.z.0.z.0.x.y.t.t.j.y.g.q.f.f.a.3X,X,Xa.p.6XMXq @ Q kXrXCXB + , > > . k cXL.pXpXcXtXHXGX",
"HXVXL.K.).K./.^.^.tXf O ;.u.5.a.:.a.$.5.%.w.%.t.%.0.*.0.*.0.*.0.6.u.:.:.u.,.5.>.8.v v W Q { fXP x W ' ' } ' } ! M I '.C.'.G.AXLX",
"LXSXeX].jX].].].pX(.k - -.d.d.f.,X3X5X7X,Xk.4.2Xt.j.t.j.t.j.t.j.g.g.f.f.f.f.7X<XMX-   } hXeXcXB   ! PXCXLXCXLX} . f vXpX(.cXHXLX",
"GXVXL.^.].^.^.^.^.(.f o | k.6.d.D c c V H a.5.,.3.w.4.0.*.0.*.0.3.4.4.u.5.c c c B W ! v.rXQ N P ! } nXiXnXIXnX-X! I K I G.D.LXHX",
"LXSXyX].jX].].]._.cXk % #.2X*.2Xz X X o v 3X3Xf.u.g.h.g.h.j.y.j.d.d.e.e.5.:   # > H.cXH.kXb   } FXPXLXCXPXJXPXLXFXB.+ b ZXD.LXLX",
"GXVX(.^.`.W.^.^.^.(.f & | k.$.l.p o v c V F H f.:.q.4.w.7.0.3.0.*.*.y.%.5.V C 4 3 v.tX(.eXb @ ~ FXB.B.-XSX-X+.<.HX} , k %X=XCXLX",
"LXDXeX].#X@X@X@X).fXg & 2.1Xr.l.p   D 8XS   S 2Xq.l.q.k.g.d.i.g.h.h.j.g.l.3X0Xj , K.kXS.cXm @ ~ HXJ.U M.DXM.~ +.LX{ 1 n iX=XLXHX",
"FXmXL.^.[.[.`.`.V.gXg & -.a.%.e.S u H ,XG i G l.%.d.6.w.:.4.w.y.*.y.*.%.6.s.;Xq < ] eXeXrXk X Q GXU.U @.bX@.T X.GX{ + k iXB.GXLX",
"LXCXeX].lX@X@XdXeXrXf & <.7Xi.x.d.4X1X1Xu.4Xg.g.g.h.6.l.h.h.y.y.y.t.t.e.q.,X8Xq , N.kXF.rXm @ } GXO.T T T T T O.SXB.@ k hX=XHXCX",
"FXmXG.Q.[._.`.(.S.fXb f _ ) &.z.$.w.%.6.3.g.$.y.3.6.3.6.%.7.y.t.*.x.=.r.x.;.1.y , { eXH.rXM + Q GXO.O.X.T @.O.X.DXJ.@ k :XJ.LXLX",
"LXCXwX'.pX}.}.yX(.H.hXiXq $ &.2Xd.d.6.l.g.g.u.7Xp.3X3X1Xg.2Xh.0.=.=.r.r.q.5XMX2 @ N.kX(.cXb . } GXmXSXO.U O.DXSXGX{ @ k hX=XCXLX",
"FXnXG.Q.'._._.(.kXF.D.&Xq o ^ a.%.q.q.u.| / ( / / / ^ ( ( / ( f.e.%.e.z.%.^ ) l k C.yXC.yXK g ` B.=XSX+.X.U.DXB.B.Q k N *X%XPXLX",
"LXCXwX'.lX}.@XpX(.(.!.uXg & o.8Xa.5X,X3Xc X o - % O O = o X u 6Xu.5Xu.3X<X- O { cXC.pX}.].yXcXM + B HXDXHXDXLX{ . b eX*XcX=XPXJX",
"LXNXL.^.[.`.`.`.F.pX!.(.b 3 _ <.) ;._ -XD t l f 3 l f q l t x <.o.;.-.o.<.l f { (.jXjXT.lXF.dXK 4 ! iX-X=X-XiX` d M cXN.L.=XJXJX",
"LXZX(.'.#X[.oX@X@X].}.'.uXfXj * - & - X B hX&XwXwXsX%XwX%XhX} # & & & & 1 D.rXF.].`.@X`.@X`.].(.NXB + 1 4 > > n sXwXdXK.dXwXPXJX",
"LXZX(.'.@X`.`.].V._.[.}.'.K.b 3 1 3 q f I rXG.kXC.'.!.kX(.(.] f f f 3 d f v.tXyX}.`.@X`.#X`.].(.uXL 3 d d 4 d M uXQ.oXZ.dXeXAXLX",
"LXZXeX].@X`.`.oXoXzX'.{.'.zXS.J.I.*XS.S.K.dXC.}._.@XW.@X`.@XzXV.I.L.K.wXH.aXpX^.`.`.oX/.oX/.].K.fXD.S.J.*XD.H.qXuX^.#X.XOXgXSXLX",
"LXZXwX(.@X/.oXgXK.yXT.'.^.).P.fXI.gXK.zXoXjX^.xX`.#XW.@X`.`.@XjXK.eX(.yXpX'.tX'.}.].oX/.dX).yX(.K.L.gXP.gXP.eXK.yX(.#X.XOXgXSXLX",
"LXNXG.F.(.K.P.I.P.eX!.pXtXG.S.J.S.dXC.dXK.).Z.).K.jX].jX)./.Z./.).fXG.G.wXH.tX(.(.^.).K.).K.(.G.uX&XgXN.P.S.eXF.wXK.).K.I.*XDXLX",
"LXCX=X&XuX*X*X=X=X&XH.wXwXwXrXgX&XfXS.eXL.eXP.eXJ.*XS.I.S.eX).dXN.&XD.%XuXqXuXG.&XP.*XL.eXL.wXG.&XH.*XU.gXP.eXG.uXwXrX*X*XfXCXLX",
"JXLXNXNXZXvXVXVXVXNXZXAXAXAXZXVXNXBXNXNXNXCXNXCXCXCXCXSXVXSXNXVXHXHXVXAXBXBXAXZXZXVXDXVXSXZXZXBXPXBXSXvXDXvXZXBXBXBXBXBXNXCXLXLX",
"PXLXLXLXLXGXLXLXLXGXLXLXGXLXLXLXLXHXLXLXLXLXLXLXLXLXLXLXPXLXLXLXLXHXGXLXHXLXLXLXLXGXLXGXLXGXLXLXPXPXLXGXGXHXLXLXJXJXJXLXLXLXLXPX"
};
