/* XPM */
static char *_a3f4e1c5a064bd384f1f404360f150cCtx0EcxAj85KrZbg[] = {
/* columns rows colors chars-per-pixel */
"64 64 256 2 ",
"   c #0B0100",
".  c #060703",
"X  c #160706",
"o  c #0A1701",
"O  c #161802",
"+  c #1B0616",
"@  c #191219",
"#  c #280808",
"$  c #241508",
"%  c #260817",
"&  c #261717",
"*  c #38120D",
"=  c #1A2400",
"-  c #1D2112",
";  c #392604",
":  c #37271A",
">  c #2C2D0D",
",  c #1E0924",
"<  c #2A1926",
"1  c #321327",
"2  c #362A27",
"3  c #392836",
"4  c #362C28",
"5  c #4C1417",
"6  c #432709",
"7  c #473705",
"8  c #4C3014",
"9  c #462B38",
"0  c #473A37",
"q  c #50352C",
"w  c #6C3030",
"e  c #4A1C23",
"r  c #52491A",
"t  c #647B06",
"y  c #4D4635",
"u  c #554738",
"i  c #544F2F",
"p  c #785639",
"a  c #69502D",
"s  c #6D7134",
"d  c #3B2A43",
"f  c #483546",
"g  c #563747",
"h  c #4F324E",
"j  c #593A5A",
"k  c #5C4958",
"l  c #574E49",
"z  c #6C5B47",
"x  c #775A46",
"c  c #6E4D52",
"v  c #75664B",
"b  c #746C4E",
"n  c #5B4A64",
"m  c #695676",
"M  c #6C566C",
"N  c #786778",
"B  c #776E6C",
"V  c #5E6151",
"C  c #855A3A",
"Z  c #8C623D",
"A  c #835A43",
"S  c #8C504F",
"D  c #A64E4A",
"F  c #896348",
"G  c #8C6D55",
"H  c #B6715D",
"J  c #867969",
"K  c #897876",
"L  c #8C6D73",
"P  c #A66865",
"I  c #BB746E",
"U  c #8C5A72",
"Y  c #CF6258",
"T  c #D96A66",
"R  c #C77468",
"E  c #CF746F",
"W  c #E47471",
"Q  c #EB685E",
"!  c #8B3735",
"~  c #7C980E",
"^  c #788A31",
"/  c #819918",
"(  c #8BAC13",
")  c #839337",
"_  c #8EA62E",
"`  c #AAD60B",
"'  c #B1D531",
"]  c #BCE631",
"[  c #B1E013",
"{  c #C2EA31",
"}  c #C4DF38",
"|  c #8C8D55",
" . c #968878",
".. c #918B6E",
"X. c #A4926D",
"o. c #B8A270",
"O. c #D28876",
"+. c #CCB67D",
"@. c #B8D552",
"#. c #D4ED65",
"$. c #7B6C86",
"%. c #836786",
"&. c #89748A",
"*. c #967A85",
"=. c #957996",
"-. c #90728F",
";. c #8F6E97",
":. c #D07981",
">. c #998598",
",. c #9A9288",
"<. c #A79194",
"1. c #B2A98E",
"2. c #9A89AD",
"3. c #A588A7",
"4. c #AA95A7",
"5. c #B89AB6",
"6. c #AF94AF",
"7. c #BAA9AD",
"8. c #CF8989",
"9. c #C8BA8F",
"0. c #CEB8AC",
"q. c #D9C99A",
"w. c #DCD79A",
"e. c #CCC398",
"r. c #E7DA9C",
"t. c #E9CC9B",
"y. c #EDE39C",
"u. c #D5CBA5",
"i. c #DBD4A6",
"p. c #D6CDB4",
"a. c #D9D5B8",
"s. c #C9C8A5",
"d. c #EBDCA4",
"f. c #E6DAA8",
"g. c #F4DBA7",
"h. c #E5DBB6",
"j. c #F8DAB3",
"k. c #EBC9A2",
"l. c #ECE2A4",
"z. c #ECE3AB",
"x. c #E9E5A9",
"c. c #F3E4AC",
"v. c #F5EAAC",
"b. c #F6E7A9",
"n. c #F6F3A9",
"m. c #ECE5B3",
"M. c #EEEAB3",
"N. c #E8E5BA",
"B. c #F3E5B3",
"V. c #F4EBB3",
"C. c #FBECB5",
"Z. c #F3EBBC",
"A. c #FCEDBA",
"S. c #F8E5B8",
"D. c #FBF2B5",
"F. c #FDF2BB",
"G. c #F8F6BA",
"H. c #EFF0A0",
"J. c #B99CC1",
"K. c #BCA6C6",
"L. c #C4A7C7",
"P. c #C8B4CA",
"I. c #C8ACD8",
"U. c #CCB3D4",
"Y. c #CDB4DB",
"T. c #CEBBDB",
"R. c #C9B6D5",
"E. c #D4B5DD",
"W. c #D4BBDD",
"Q. c #DABDDD",
"!. c #D5B6D5",
"~. c #D1B4D4",
"^. c #E7B9DE",
"/. c #CDAEE4",
"(. c #CEB5E4",
"). c #D3B4E4",
"_. c #D5BCE4",
"`. c #DABCE5",
"'. c #D4B5EC",
"]. c #DBB5EB",
"[. c #D5BBEA",
"{. c #DCBCEB",
"}. c #DAB6E4",
"|. c #DCB5F3",
" X c #DCBCF3",
".X c #DEBEFA",
"XX c #D7B7F3",
"oX c #D5AEE9",
"OX c #E1BDE5",
"+X c #E2BCEC",
"@X c #E4B8EA",
"#X c #E3BCF4",
"$X c #E3BDFB",
"%X c #E6BBF5",
"&X c #D3C3DD",
"*X c #DAC4DE",
"=X c #D8CADC",
"-X c #D4C7CF",
";X c #FED9C2",
":X c #E2CFD1",
">X c #E9E6C5",
",X c #FCEEC3",
"<X c #F6ECC8",
"1X c #FDF4C4",
"2X c #FEFAC5",
"3X c #FDF4CC",
"4X c #FEFCCC",
"5X c #F5F4C7",
"6X c #FEF4D3",
"7X c #FFFDD3",
"8X c #FEFEDB",
"9X c #FCF4DA",
"0X c #F6EDD2",
"qX c #D5C3E3",
"wX c #DBC3E3",
"eX c #DCCBE4",
"rX c #DCC2EB",
"tX c #DDCBEC",
"yX c #D5C6E8",
"uX c #DED2E7",
"iX c #DDC2F3",
"pX c #DCC3F8",
"aX c #D6CBED",
"sX c #E2C5E4",
"dX c #E2CBE5",
"fX c #E1C3EC",
"gX c #E3CCEB",
"hX c #E9CBE8",
"jX c #E3D4EC",
"kX c #E7D7E9",
"lX c #E3C3F3",
"zX c #E8C3F5",
"xX c #E3CAF3",
"cX c #EACAF4",
"vX c #E3C3FC",
"bX c #EAC3FD",
"nX c #E5CBFC",
"mX c #EBCBFB",
"MX c #E5D3F3",
"NX c #EAD6F6",
"BX c #F5D8FA",
"VX c #F3D3F3",
"CX c #F5E8EB",
"ZX c #FCFAE7",
"AX c #EEE6F5",
"SX c #F4E4FD",
"DX c #F4EBFC",
"FX c #FAECFD",
"GX c #F6E9F5",
"HX c #FEFCF4",
"JX c #FDF4FE",
"KX c #F6FDFD",
"LX c #FEFEFF",
"PX c #FEFBFE",
"IX c #F7F5F8",
"UX c #EDECF0",
/* pixels */
"ZXZXLXPXPXPXJXHXHXHXHXLXLXLXHXLXPXPXPXPXPXPXPXJXPXPXLXPXLXKXKXKXKXKXLXKXKXLXJXLXLXIXLXLXPXPXLXLXLXLXLXLXLXLXLXJXJXJXJXJXPXIXLXKX",
"ZXZXUXAXSXFXSXGXCXCXUXPXGXkXFXFXFXFXFXFXFXFXFXGXFXGXFXAXIXUXIXUXIXUXDXDXFXDXDXJXDXDXIXJXFXFXDXAXAXAXAXDXDXDXDXFXNXGXFXGXJXIXLXKX",
"LXDXyX[.XXXX[.rXP.uX&XR.iXxX_._._.qXqX_._.qX_.W.qXW.qXT.qXT.qXT.wX!.`.`.`.{.).{.).wXW.W.`.rXrXgX*X*XwXW._.yXqXgXgXsXsX!.!.=XKXKX",
"JXSXyXpXvX.X'.rXW.U.rX[. XvX].vXiXiXiXrXrXiXlXrXlXrXlX{.xXrXiXrXzX@X%X%X%X%X#XzX}.zX#XzXlX{.).{.U.OXzX].#XvX_.T.qX!.OXOXhXkXKXKX",
"PXFX[.XX.X|.).hXk , 6.BX/.XX XnX[.[.[.[.{. X X X#X|.#X].$X|.#X].#X@X#X%X%X$X|.$X XvX'. XXX XXXmX`.cX#X|.|.$XxXqXgX`.{.{.xXMXKXKX",
"PXSX_.[.vXBX!.hXk 1 3.sX`.mX].{.{.iXiX X X#X#X#X%X#X$X|.$X#X$X#X%X#X%X%X%X$X XvX$XvX'. X[.nX[._.qX`.oXmXbX/.fX!.~.sXzX].iXMXLXLX",
"JXGXdXwXOX~.j 9 U L k 9 =.cXE.OX`.`.{.{.{.{.{.].+X].#X}.#X].#X].#X}.{.{.{.{.[.iXI.iX_.xX`.dX=.f f f n XXI.j j 9 g 6.lX'.iXNXJXHX",
"LXCXwXQ.sXQ.9 # K <.g + -.cXfXOXOXfXfXOX{.fXfX{.fX{.lX[.lX{.lX{.lX{.fXrXrXfX{.lX{.cX`.wX!.VX*.# : % h BXE.1 1 5 # 6.BXXXiXMXJXHX",
"JXAXqX{.).E.5.7.k 3 >.K.J.lX).lX}.+X`.OX`.}.).`.)._._._.rXY._.Y.[.).Y.`.sX`.}.+X@X@X^.^.*.w c P G P U g c L P P P S h 2.pXuXJXCX",
"PXFXyXiXiXnXwXhXg + =.BXiXnX X#X#X+X#XzX{.lXmX).NXY.xXtXMXMXtXMXBXmXmXfXfX`.OXOX@X@X^.VXU # c 8.R O.P 5 5 I O.R 8.w , 2.MXuXJXHX",
"PXAX(.'.XX.X[.sX6.>.K.iX'. X'.vX|.#X|.#X'.).rX).qXI.tX=.n m m m m $.yXY.Y._.`.fXoX%X@XVXU # c I T Y Y D D R Y E E w 1 2.aXuXJXCX",
"LXDXyXpX.XvX'.`.wXBXxX[.[.nX XbX|.bX$XvXmX{.xXxXNXjXSXN + < < , , n MXNXMXMXyXiXlX X#XBX%.% c 8.T Q Q W W T T W 8.w % =.aXuXPXHX",
"JXAXqX{. X$X).`.U.U.).nX'.{.{.}.'.$XXX/. X{._.-.%.N &.g < 9 l 0 < f $.N N $.R.yX X'.XXxX3.%.M c D T T T Y Y T D S U %.5.tXjXPXLX",
"LXGXwXiX$XbX#XcXcXsX{.nXiXlX{.mXlXvXvX[.`.NXdXf + % & # : u G z $ 4 X $ $ < ~.BX{.nXnX XxXFX=.X w E W W W W E e # 5.BXfX_.jXLXJX",
"JXCXW.'.|.$X].#X/.lX{.). XbXI.lX).(._.wX*X4.4.l q u q 6 8 a Z a ; u 8 q q q *.3.Y. X'.].`.Q.>.c c S P R H P P c M 5.E.}.`.MXLXKX",
"PXGXwXiX$XbX#XzXzX).vXbXXXbX+XlXlXxXW.jX!.< & c G F F F G C Z C G p G x F G e 1 L.mX+XzX{.sXhXhX4.% e 8.I * 1 P.jXiX{.+XfXNXLXKX",
"PXGXqX_.rX`.`.OXE.zX|.XX.X'.rXrX[.iX).wXP.9 : c A x F C Z C C C F C F p G x q % 5.sX`.rX{.'.[.{.3.h k *.L g j L.wX).#X[.qXMXPXKX",
"PXGXqXqXrX`.wXsXOX+XvX$X.XnX).rX[.iXrXsX*X9 * x F A F C F C F C F p G F x v : & 7.dX~.gX_.mXpXlXlXhXL.+ 9 hXQ.Q.fX].zX[.yXMXLXLX",
"PXFXqX_.iX{.rXfXE.#XXXvX'.iX&XR.R.P.P.-X7.0 q z x p x p A p A p F p p v x z u q 7.P.P.&XR.Y.Y._.).lXJ.f j !.gXOXzX|.vX[.yXMXLXLX",
"PXFXqX[.iX{.{.+X{.nX$XvX'.NX&.& < 3 2 2 0 :Xh.i ; ; 6 ; 6 6 6 6 ; 6 ; ; 8 ; u.>Xy 2 2 3 3 < &.NX).lX`.fXW.W.rX'.$XXXvX[.qXjXLXLX",
"PXFXyX[.pX X X X{.). X{.Y.NXK : : 4 > $ : <X<Xr ; ; ; ; 6 ; : ; ; ; ; ; ; ; a.8Xi > > 2 2 & B =XI.nX{.`.rXmX X$X$X|.$X[.qXkXLXLX",
"PXFXrX[.pXXX XlX).lX).xX&.3 J a.s.s.u.i.u.m.Z.i.i.q.i.u.f.u.p.u.h.e.q.i.u.i.m.>Xu.a.p.a.p.:X..4 N mX).Y._._.(..X$X|.vX[.wXkXLXLX",
"PXGXqX[.pXXX XrXrXBXQ.kXN   b 8XZ.Z.2XZ.1XM.m.M.G.Z.1XZ.3X<X3X<X1Xm.4X1XV.2Xm.4Xm.4X<XZ.N.8X..  M MXgXNXgXxXnX/.$X|.vX[.wXkXLXHX",
"JXGXqX_. X[.{.qXN f k l  .p.9.Z.z.x.z.M.w.V.M.x.z.x.m.f.m.h.m.h.m.f.Z.f.m.z.f.M.M.i.z.M.h.Z.u.9.,.k g k n P.qXiX.XXX$X}.qXkXJXHX",
"JXCXgX_.xXxXwXBX9 + &    .8Xm.G.V.D.c.V.V.v.D.z.V.V.D.V.F.V.2Xz.F.V.A.1XC.C.D.z.v.D.V.C.V.A.v.7X1.X X X 2 uXNXrXvX XmXlX`.kXPXJX",
"JXCX*XY.).Y.N c <.1.1.X.e.,Xf.D.l.c.z.v.V.c.V.c.v.l.l.z.v.l.D.l.V.B.B.z.d.l.c.D.d.v.c.l.l.V.d.B.u.1.1.1. .B k K.)./.lX[.`.gXJXPX",
"JXCXdXNXMX*X0   u.3X<X7X1X1Xx.D.c.D.A.c.c.C.A.c.c.v.F.C.b.l.D.r.F.B.C.c.D.2Xb.c.D.b.c.v.V.F.c.1XV.7XZ.7Xa.O & -XSXcXlX).fXSXPXPX",
"JXCX*XL.$.N K ..u.V.i.V.m.z.x.B.d.c.B.S.B.c.c.d.c.d.l.l.b.r.D.r.c.d.C.d.g.b.r.b.d.l.V.v.d.z.f.V.f.D.w.m.N... .B N J.xX_._.tXJXJX",
"PXGXjXK.d 3 a.8XV.n.v.m.B.1X1X1XF.A.d.F.F.c.F.1X4XC.c.c.F.l.v.b.D.B.F.D.C.F.A.A.c.C.A.F.C.2XF.V.V.V.V.V.Z.5XZX0 & 3.mXfXrXNXJXPX",
"JXNXyXT.d & p.z.l.y.v.z.B.,X9...+.A.c.z.c.g.B.o.X.f.A.d.c.c.v.d.C.d.C.d.o.o.d.g.C.g.f.,X9...1.1XV.d.V.V.f.h.0Xy & 4.sXY._.NXJXFX",
"PXFXyXR.3 2 h.2XH.n.b.D.B.3X..$ a A.1XA.A.1XB.r $ 9.4Xg.C.D.2XC.V.B.1Xe.7 7 q.4XB.A.S.7Xb   b 8Xz.D.V.M.G.4X<Xy + 6.NXqXgXMXJXPX",
"JXFX_.R.h g 7.e.r.n.r.V.f.8XX.X p j.k.k.k.j.S.a 7 9.A.d.A.u.e.q.A.d.A.q.7 7 f.S.k.j.k.;XG O ..<Xf.A.x.Z.m.e.s.z 9 5.wXU.rXgXJXPX",
"PXFX_._.rXgX9 $ s.5XZ.3XN.ZXX.# w R R E O.;X;Xa ; 9.D.b.3XX.; G 3Xb.S.t.; 7 t.,XO.R E 8.a $ B 8Xm.4Xz.5XN.- & P.gX`.lX{.rXMXPXPX",
"GXAXyX{. X).j 4 0.p.a.a.p.a...* ! W R E I ;X;Xp 7 +.D.t.j.X.; G j.k.4Xq.r r q.S.O.T T :.c & B >Xu.i.u.<X7.0 3 5.fX{.zX`.qXjXJXPX",
"LXFXwX[. XmXP.-Xu 4 4 : 4 4 4 # w O.R R H j.A.g.d.C.1XF 8 8 6 q q x ,Xj.w.f.1X,XO.R E O.w X 0 4 : 4 : & 0 P.*XsXlX}.lX`.qXjXPXPX",
"LXAXqX_. X XgXVX0 2 < < 3 < 3 9 w R H O.X.g.C.C.C.d.F.G 6 8 a 6 8 v ,XC.F.V.B.S.O.E H O.G : < < < 2 < < f *XxX_.lX].lX[.qXkXLXLX",
"LXCXqXrX X/.).~.~.P.P.T.T.R.L.P.<.5 a j.r.n.v.w.D.V.,Xq.k.9.t.r.r.w.v.r.H.H.l.g.t.j.S * *.P.5.qXP.P.U.W.I.rX).'.$XXX#X`.qXkXLXLX",
"HXCX*X_.iX XlXgXwXgX).nXiXnXiXBX4.# u >X7XV.G.7XN.N.<X6X8XZ.1XC.V.G.1X1XG.M.Z.4X,X9XG X &.SXqXrX{.mX{.[.xXvXvX X$XXX#X_.qXjXLXLX",
"HXCX*X_. X X).}.E.fX[.pXXXiX/.{.K.5.4.l l y y y V l V l y l z y V l l l k l u u l g *.5.I.rXU.rX[.lX XvX X/.'..X$XXX#X[.qXjXLXLX",
"HXGXgX{. XmX{.mX{.xXXX.X.XpX{.BXNXSXR.@ @ - > o O o = o O = O = = o = O O O & & & X 4.SXMXBXrXlX|.vX XvX XnXvX.XbX XvX{.wXjXLXLX",
"JXAXW.[. X|.].+X).). XiXI.xX3.M M V V 7.,.> > ^ ) ~ / ~ / ~ / ~ ( ~ ~ _ ^ ^ r > ..7.B n N n =.pX].].lX).).{.'.].].|.zXI.qXjXIXLX",
"LXJXwXlX$X$X#XlXlXlX'.xXfXBX&.  $ X : >X5X= o @.#.' ] ] { [ { [ [ [ { ' #.#.= O s.9XV . @ @ m BX{.{.{.cXrXxXcX[.zX}.lXfXxXNXPXLX",
"PXDXT.[.XX#X].{.E.fX_.fX3.L K  . . .,.>XN...| t t ( [ ` ` ` ` ` ` ` [ ( t ^ ) | s.>X1.|  . .B N 3.fXE.`.U.W.`.E.OXI.`.).T.MXLXIX",
"LXJXqXlX#XzX#XlX`.rX).NXN X J 9X6X6X6X6Xh.2XG.> o ( #.' { ] ] ] } } } ' o o n.G.4XN.2X7X0X9X,.  M BX`.dXsXwXhXVXVXcXcX`.wXNXPXLX",
"PXDXT.[.].|.].{.{.xX).NXN   J <Xw.c.f.V.Z.f.M.| s ^ ^ ^ ) ^ ^ ^ / ~ ^ ^ | b i.V.x.w.f.f.f.3XX.O k cXU.Q.*X*X!.3.-.L.OX~.qXeXDXIX",
"LXJXqXiX#XzX#XlX`.fXY.MXN X ..7Xf.2Xv.l.D.c.F.M.1Xi O O O . = O O O o > 8X6Xh.A.H.G.F.F.S.3X..O m BX`.Q.Q.BXsXh % 5.BXQ.eXkXPXLX",
"PXGXT.[.].{.].{.lX{.(.NX$.X B 5Xf.l.y.b.y.v.V.f.,Xb i b z i s a p a i V >XN.S.S.l.y.r.b.k.,X .o n cX`.W.U.5.6.n h =.5.L.eXjXPXJX",
"LXFXqXrXzX$X#XzX}.iXiXMXN   J 8XZ.c.C.G.y.b.v.V.,X,X3X>X3X1X2XA.3XS.7X5XN.m.A.A.V.D.y.D.S.6X,.. m nX{.cXU.1 , -.5.h % -.BXdXFXPX",
"JXFXW.{.{.%X#X%X].}.`.gX&.f N -Xu.B.f.V.c.C.l.c.S.S.j.d.V.l.b.l.C.c.l.v.z.v.b.v.V.z.c.j.h.h.J 2 %.vX).lXU.f j %.-.n h 3.hXdXJXPX",
"PXFX&XrX+X%X%X$X#XcXE.qXeXdX>.& v 7X3Xm.d.C.c.c.g.g.A.c.C.b.y.b.b.b.D.l.l.C.r.v.c.m.Z.8Xb   K kX[.$X'.lXfXsXsXf 1 6.sXQ.sXjXPXJX",
"LXDX&XrX{.#X#X%X).mXrX`.qXjX=.+ B h.p.,X1XV.S.A.F.1X,XB.A.A.F.x.V.V.c.l.D.D.z.F.m.3X>XZXK % K wX{.iXiXrXE.sXwXn 1 J.VX!.*XkXPXJX",
"LXDX&XqX{.#X|.%X#XlX).rXW.qXR.P. .y i h.Z.f.B.B.f.B.h.m.Z.i.<Xh.Z.Z.M.F.D.w.v.M.m.>Xb 2 K P.U.xX(.{._.rXxXW.U.I.L.`.Q.U.jXkXPXLX",
"LXDX&XqX{. X|.#X{.{._.rXqXgXgXBX,.X y <XZ.V.F.v.F.z.1X<X0X0X9X0X6Xa.1XZ.M.M.G.V.m.8Xb   >.FXI.pXiX_.[.yXrXxXxXrXmXlXxXqX*XkXLXLX",
"LXDX&XwX{.#X#X%X). XlXrXE.).I.wX<.O y >Xm.V.l.l.x.f.4X| y z u u i b 3Xm.i.G.x.x.i.3Xv X &.xX/.vX[.[.xXyXI._.[.).).I.fX_.R.uXLXJX",
"LXDX&XqX{.#X#X$X%X|.[.fXlXmX{.BX4.O q N.Z.M.v.n.D.V.4Xb   X + &   i <X5XG.G.w.G.G.7Xz $ &.NXvX.X[.rX_.yXiXnX{.vXmX|.lX{.tXAXLXLX",
"PXDX&X`.{.#X|.$X].|.{.}.}.#X/.cX>.& y 0Xh.i.V.w.M.| p J <.>.4.>.<.K b G h.z.x.x.i.N.z $ =.VX/. X{.{.).iX/.[.XX'.XX|.vXY.qXjXJXLX",
"PXSXtX`.zX$X$XbX%XbX#XzX#XzX%XmX3.X 0 9X9X8X<X3X6Xi   ,.CXkXNXdXGX4.  : ZX6X1X4X3X6Xz   &.VX}.bX+XlXlXiX XlX$X$X$X$XbX[.rXNXPXLX",
"PXSXqXE.{.].oX|.].#X].+X}.#X].%XJ.&.>.B  . ...J J K *.5.W.Y.iX/.rXK.=.*.K J ..J ..J K *.6.fX].#X}.{.[.[.{.|. X|.|.|.#X/.`.jXJXPX",
"PXFXgX`.zXzX%X$X].zX{.#X{.%X@XzXnXmXL.+ + X + X + 4.VXrXnX XnXXXvX{.BXK., + % X X X <.VXfXzX X|.{.fXfXrXiXlX#X$XbX$XbX{.fXNXPXLX",
"JXAX&XY.`.{.}.{.).+X).`.`.{.}.#X[.rXY.$.N N N N m K.xX/.vX/.pXXX X'.nXI.m N M N M M 5.qX_.rX[.lX`.`.`.`.`.{.{.[.#X].#X).qXjXJXPX",
"LXDXeX&XwXwX`.rX_.tX&XqXqXrX`.fX_.Y.yXjXjXkXjXjXMXyXiX[.nX[.xX[.rXrX[.qXMXNXeXMXjXNX&XT.tXyX[.xXqXqXwXqXqXwXqX`.fX`.{.W.eXkXLXLX",
"PXUXkX=XdXgXgXgXeXuX=X=X=XuXqXgXjXtXeXR.eX=X=XqXtXqXMXtXMXgXNXW.gXjXgX*XjXeXeX&X&XjX&XuXMX&XeXeXqXeXeXeX=XeXeXqXgXwXgXeXkXkXKXKX",
"LXLXIXIXJXJXJXJXJXLXJXLXPXLXJXPXGXLXLXIXLXLXLXPXPXJXPXFXGXJXPXJXJXIXPXJXIXJXLXLXJXJXIXLXPXIXLXLXJXPXPXPXPXPXPXJXPXFXJXJXPXPXKXKX",
"HXLXLXLXPXPXPXPXLXLXJXLXLXLXPXLXLXHXHXLXIXIXLXLXLXPXPXLXLXLXHXHXHXZXHXLXLXLXIXLXLXLXLXJXLXLXJXJXPXPXPXLXPXLXLXPXPXJXPXPXLXKXKXKX"
};
